<?xml version="1.0" encoding="utf-8"?>
<!-- created with bpmn-js / http://bpmn.io -->
<!DOCTYPE svg PUBLIC "-//W3C//DTD SVG 1.1//EN" "http://www.w3.org/Graphics/SVG/1.1/DTD/svg11.dtd">
<svg xmlns="http://www.w3.org/2000/svg" xmlns:xlink="http://www.w3.org/1999/xlink" width="326" height="212" viewBox="472 80 326 212" version="1.1"><defs><marker viewBox="0 0 20 20" markerWidth="10" markerHeight="10" orient="auto" refX="11" refY="10" id="markerSj041ksb64"><path d="M 1 5 L 11 10 L 1 15 Z" fill="#000000" style="stroke-width: 1px; stroke-linecap: round; stroke-dasharray: 10000px, 1px;"/></marker><marker viewBox="0 0 20 20" markerWidth="20" markerHeight="20" orient="auto" refX="6" refY="6" id="markerSj041ksb66"><circle cx="6" cy="6" r="3.5" fill="#ffffff" stroke="#000000" style="stroke-width: 1px; stroke-linecap: round; stroke-dasharray: 10000px, 1px;"/></marker><marker viewBox="0 0 20 20" markerWidth="20" markerHeight="20" orient="auto" refX="8.5" refY="5" id="markerSj041ksb68"><path d="m 1 5 l 0 -3 l 7 3 l -7 3 z" fill="#ffffff" stroke="#000000" style="stroke-width: 1px; stroke-linecap: butt; stroke-dasharray: 10000px, 1px;"/></marker><marker viewBox="0 0 20 20" markerWidth="10" markerHeight="10" orient="auto" refX="1" refY="10" id="markerSj041ksb6a"><path d="M 11 5 L 1 10 L 11 15" fill="none" stroke="#000000" style="stroke-width: 1.5px; stroke-linecap: round; stroke-dasharray: 10000px, 1px;"/></marker><marker viewBox="0 0 20 20" markerWidth="10" markerHeight="10" orient="auto" refX="12" refY="10" id="markerSj041ksb6c"><path d="M 1 5 L 11 10 L 1 15" fill="none" stroke="#000000" style="stroke-width: 1.5px; stroke-linecap: round; stroke-dasharray: 10000px, 1px;"/></marker><marker viewBox="0 0 20 20" markerWidth="10" markerHeight="10" orient="auto" refX="-1" refY="10" id="markerSj041ksb6e"><path d="M 0 10 L 8 6 L 16 10 L 8 14 Z" fill="#ffffff" stroke="#000000" style="stroke-width: 1px; stroke-linecap: round; stroke-dasharray: 10000px, 1px;"/></marker><marker viewBox="0 0 20 20" markerWidth="10" markerHeight="10" orient="auto" refX="-5" refY="10" id="markerSj041ksb6g"><path d="M 1 4 L 5 16" fill="#000000" stroke="#000000" style="stroke-width: 1px; stroke-linecap: round; stroke-dasharray: 10000px, 1px;"/></marker></defs><g class="djs-group" xmlns="http://www.w3.org/2000/svg"><g data-element-id="pool_id_el_ejemplo_mas_simple." transform="matrix(1,0,0,1,478,86)" class="djs-element djs-shape" style="display: block;"><g class="djs-visual"><rect x="0" y="0" width="314" height="200" rx="0" ry="0" stroke="#000000" fill="#ffffff" style="stroke-width: 2px; fill-opacity: 0.95;"></rect><polyline points="30,0 30,200 " fill="none" stroke="#000000" style="stroke-width: 2px;"></polyline><text class=" djs-label" transform="matrix(0,-1,1,0,0,200)" style="font-family: Arial, sans-serif; font-size: 12px;"><tspan x="19.2890625" y="18">pool_el_ejemplo_mas_simple.</tspan></text></g><rect x="0" y="0" width="314" height="200" fill="none" stroke="#ffffff" style="stroke-opacity: 0; stroke-width: 15px;" class="djs-hit"></rect><rect x="-6" y="-6" width="326" height="212" fill="none" class="djs-outline"></rect></g><g class="djs-children"><g class="djs-group"><g data-element-id="_StartEvent_1_label" transform="matrix(1,0,0,1,484,211)" class="djs-element djs-shape" style="display: none;"><g class="djs-visual"><text class=" djs-label" style="font-family: Arial, sans-serif; font-size: 11px;"><tspan x="45" y="0"></tspan></text></g><rect x="0" y="0" width="90" height="19" fill="none" stroke="#ffffff" style="stroke-opacity: 0; stroke-width: 15px;" class="djs-hit"></rect><rect x="-6" y="-6" width="102" height="31" fill="none" class="djs-outline"></rect></g></g><g class="djs-group"><g data-element-id="_EndEvent_1_label" transform="matrix(1,0,0,1,721,211)" class="djs-element djs-shape" style="display: none;"><g class="djs-visual"><text class=" djs-label" style="font-family: Arial, sans-serif; font-size: 11px;"><tspan x="45" y="0"></tspan></text></g><rect x="0" y="0" width="90" height="19" fill="none" stroke="#ffffff" style="stroke-opacity: 0; stroke-width: 15px;" class="djs-hit"></rect><rect x="-6" y="-6" width="102" height="31" fill="none" class="djs-outline"></rect></g></g><g class="djs-group"><g data-element-id="_StartEvent_1" transform="matrix(1,0,0,1,513,171)" class="djs-element djs-shape" style="display: block;"><g class="djs-visual"><circle cx="16" cy="16" r="16" stroke="#000000" fill="#ffffff" style="stroke-width: 2px;"></circle></g><rect x="0" y="0" width="32" height="32" fill="none" stroke="#ffffff" style="stroke-opacity: 0; stroke-width: 15px;" class="djs-hit"></rect><rect x="-6" y="-6" width="44" height="44" fill="none" class="djs-outline"></rect></g></g><g class="djs-group"><g data-element-id="_3" transform="matrix(1,0,0,1,605,159)" class="djs-element djs-shape" style="display: block;"><g class="djs-visual"><rect x="0" y="0" width="85" height="55" rx="10" ry="10" stroke="#000000" fill="#ffffff" style="stroke-width: 2px;"></rect><text class=" djs-label" style="font-family: Arial, sans-serif; font-size: 12px;"><tspan x="7.484375" y="30.5">realizar tarea</tspan></text><path d="m 15,12 c 0.909,-0.845 1.594,-2.049 1.594,-3.385 0,-2.554 -1.805,-4.62199999 -4.357,-4.62199999 -2.55199998,0 -4.28799998,2.06799999 -4.28799998,4.62199999 0,1.348 0.974,2.562 1.89599998,3.405 -0.52899998,0.187 -5.669,2.097 -5.794,4.7560005 v 6.718 h 17 v -6.718 c 0,-2.2980005 -5.5279996,-4.5950005 -6.0509996,-4.7760005 zm -8,6 l 0,5.5 m 11,0 l 0,-5" fill="none" stroke="#000000" style="stroke-width: 0.5px;"></path><path d="m 15,12 m 2.162,1.009 c 0,2.4470005 -2.158,4.4310005 -4.821,4.4310005 -2.66499998,0 -4.822,-1.981 -4.822,-4.4310005 " fill="none" stroke="#000000" style="stroke-width: 0.5px;"></path><path d="m 15,12 m -6.9,-3.80 c 0,0 2.25099998,-2.358 4.27399998,-1.177 2.024,1.181 4.221,1.537 4.124,0.965 -0.098,-0.57 -0.117,-3.79099999 -4.191,-4.13599999 -3.57499998,0.001 -4.20799998,3.36699999 -4.20699998,4.34799999 z" fill="#000000" stroke="#000000" style="stroke-width: 0.5px;"></path></g><rect x="0" y="0" width="85" height="55" fill="none" stroke="#ffffff" style="stroke-opacity: 0; stroke-width: 15px;" class="djs-hit"></rect><rect x="-6" y="-6" width="97" height="67" fill="none" class="djs-outline"></rect></g></g><g class="djs-group"><g data-element-id="_EndEvent_1" transform="matrix(1,0,0,1,750,171)" class="djs-element djs-shape" style="display: block;"><g class="djs-visual"><circle cx="16" cy="16" r="16" stroke="#000000" fill="#ffffff" style="stroke-width: 4px;"></circle></g><rect x="0" y="0" width="32" height="32" fill="none" stroke="#ffffff" style="stroke-opacity: 0; stroke-width: 15px;" class="djs-hit"></rect><rect x="-6" y="-6" width="44" height="44" fill="none" class="djs-outline"></rect></g></g><g class="djs-group"><g data-element-id="_3_F_label" transform="matrix(1,0,0,1,675,177)" class="djs-element djs-shape" style="display: none;"><g class="djs-visual"><text class=" djs-label" style="font-family: Arial, sans-serif; font-size: 11px;"><tspan x="45" y="0"></tspan></text></g><rect x="0" y="0" width="90" height="19" fill="none" stroke="#ffffff" style="stroke-opacity: 0; stroke-width: 15px;" class="djs-hit"></rect><rect x="-6" y="-6" width="102" height="31" fill="none" class="djs-outline"></rect></g></g><g class="djs-group"><g data-element-id="_StartEvent_1_3_label" transform="matrix(1,0,0,1,530,177)" class="djs-element djs-shape" style="display: none;"><g class="djs-visual"><text class=" djs-label" style="font-family: Arial, sans-serif; font-size: 11px;"><tspan x="45" y="0"></tspan></text></g><rect x="0" y="0" width="90" height="19" fill="none" stroke="#ffffff" style="stroke-opacity: 0; stroke-width: 15px;" class="djs-hit"></rect><rect x="-6" y="-6" width="102" height="31" fill="none" class="djs-outline"></rect></g></g><g class="djs-group"><g data-element-id="_StartEvent_1_3" class="djs-element djs-connection" style="display: block;"><g class="djs-visual"><path d="m  544.9980467557762,186.75L605,186.75 " fill="none" stroke="#000000" style="stroke-width: 2px; stroke-linejoin: round; marker-end: url(&quot;#markerSj041ksb64&quot;);"></path></g><polyline points="544.9980467557762,186.75 605,186.75 " fill="none" stroke="#ffffff" style="stroke-opacity: 0; stroke-width: 15px;" class="djs-hit"></polyline><rect x="538.9980467557762" y="180.75" width="72.00195324422384" height="12" fill="none" class="djs-outline"></rect></g></g><g class="djs-group"><g data-element-id="_3_F" class="djs-element djs-connection" style="display: block;"><g class="djs-visual"><path d="m  690,186.75L750.0019532442238,186.75 " fill="none" stroke="#000000" style="stroke-width: 2px; stroke-linejoin: round; marker-end: url(&quot;#markerSj041ksb64&quot;);"></path></g><polyline points="690,186.75 750.0019532442238,186.75 " fill="none" stroke="#ffffff" style="stroke-opacity: 0; stroke-width: 15px;" class="djs-hit"></polyline><rect x="684" y="180.75" width="72.00195324422384" height="12" fill="none" class="djs-outline"></rect></g></g></g></g></svg>
