<?xml version="1.0" encoding="utf-8"?>
<!-- created with bpmn-js / http://bpmn.io -->
<!DOCTYPE svg PUBLIC "-//W3C//DTD SVG 1.1//EN" "http://www.w3.org/Graphics/SVG/1.1/DTD/svg11.dtd">
<svg xmlns="http://www.w3.org/2000/svg" xmlns:xlink="http://www.w3.org/1999/xlink" width="863.3908081054688" height="754" viewBox="109 36 863.3908081054688 754" version="1.1"><defs><marker viewBox="0 0 20 20" markerWidth="10" markerHeight="10" orient="auto" refX="11" refY="10" id="markerSii18646m1pf"><path d="M 1 5 L 11 10 L 1 15 Z" style="stroke-width: 1; stroke-linecap: round; stroke-dasharray: 10000, 1;" fill="#000000"/></marker><marker viewBox="0 0 20 20" markerWidth="20" markerHeight="20" orient="auto" refX="6" refY="6" id="markerSii18646m1ph"><circle cx="6" cy="6" r="3.5" style="stroke-width: 1; stroke-linecap: round; stroke-dasharray: 10000, 1;" fill="#ffffff" stroke="#000000"/></marker><marker viewBox="0 0 20 20" markerWidth="20" markerHeight="20" orient="auto" refX="8.5" refY="5" id="markerSii18646m1pj"><path d="m 1 5 l 0 -3 l 7 3 l -7 3 z" style="stroke-width: 1; stroke-linecap: butt; stroke-dasharray: 10000, 1;" fill="#ffffff" stroke="#000000"/></marker><marker viewBox="0 0 20 20" markerWidth="10" markerHeight="10" orient="auto" refX="11" refY="10" id="markerSii18646m1pl"><path d="M 1 5 L 11 10 L 1 15" style="stroke-width: 1; stroke-linecap: round; stroke-dasharray: 10000, 1;" fill="#ffffff" stroke="#000000"/></marker><marker viewBox="0 0 20 20" markerWidth="10" markerHeight="10" orient="auto" refX="-1" refY="10" id="markerSii18646m1pn"><path d="M 0 10 L 8 6 L 16 10 L 8 14 Z" style="stroke-width: 1; stroke-linecap: round; stroke-dasharray: 10000, 1;" fill="#ffffff" stroke="#000000"/></marker><marker viewBox="0 0 20 20" markerWidth="10" markerHeight="10" orient="auto" refX="-5" refY="10" id="markerSii18646m1pp"><path d="M 1 4 L 5 16" style="stroke-width: 1; stroke-linecap: round; stroke-dasharray: 10000, 1;" fill="#000000" stroke="#000000"/></marker></defs><g xmlns="http://www.w3.org/2000/svg" class="djs-group"><g style="display: block;" transform="matrix(1,0,0,1,123,42)" data-element-id="Participant_1rcdbfa" class="djs-element djs-shape"><g class="djs-visual"><rect fill="#ffffff" stroke="#000000" style="stroke-width: 2;" ry="0" rx="0" height="370" width="783.8937875751503" y="0" x="0"></rect><polyline stroke="#000000" fill="none" style="stroke-width: 2;" points="30,0 30,370 "></polyline><text transform="matrix(0,-1,1,0,0,370)" class=" djs-label" style="font-family: Arial,sans-serif; font-size: 12px;"><tspan y="18.5" x="172.5">Web</tspan></text></g><rect class="djs-hit" stroke="#ffffff" fill="none" style="stroke-opacity: 0; stroke-width: 15;" height="370" width="783.8937875751503" y="0" x="0"></rect><rect class="djs-outline" fill="none" style="" height="382" width="795.8937875751503" y="-6" x="-6"></rect></g><g class="djs-children"><g class="djs-group"><g style="display: block;" transform="matrix(1,0,0,1,153,42)" data-element-id="Lane_19qy5r7" class="djs-element djs-shape hover"><g class="djs-visual"><rect fill="none" stroke="#000000" style="stroke-width: 2;" ry="0" rx="0" height="370" width="753.8937875751503" y="0" x="0"></rect><text transform="matrix(0,-1,1,0,0,370)" class=" djs-label" style="font-family: Arial,sans-serif; font-size: 12px;"><tspan y="18.5" x="139">usuario anonimo</tspan></text></g><rect class="djs-hit" stroke="#ffffff" fill="none" style="stroke-opacity: 0; stroke-width: 15;" height="370" width="753.8937875751503" y="0" x="0"></rect><rect class="djs-outline" fill="none" style="" height="382" width="765.8937875751503" y="-6" x="-6"></rect></g></g><g class="djs-group"><g style="display: block;" transform="matrix(1,0,0,1,190,142)" data-element-id="StartEvent_1" class="djs-element djs-shape"><g class="djs-visual"><circle fill="#ffffff" stroke="#000000" style="stroke-width: 2;" r="18" cy="18" cx="18"></circle></g><rect class="djs-hit" stroke="#ffffff" fill="none" style="stroke-opacity: 0; stroke-width: 15;" height="36" width="36" y="0" x="0"></rect><rect class="djs-outline" fill="none" style="" height="48" width="48" y="-6" x="-6"></rect></g></g><g class="djs-group"><g style="display: block;" transform="matrix(1,0,0,1,293,120)" data-element-id="Task_0izl2x3" class="djs-element djs-shape"><g class="djs-visual"><rect fill="#ffffff" stroke="#000000" style="stroke-width: 2;" ry="10" rx="10" height="80" width="100" y="0" x="0"></rect><text class=" djs-label" style="font-family: Arial,sans-serif; font-size: 12px;"><tspan y="36.5" x="27.5">registrar </tspan><tspan y="50.5" x="11">usuario nuevo </tspan></text></g><rect class="djs-hit" stroke="#ffffff" fill="none" style="stroke-opacity: 0; stroke-width: 15;" height="80" width="100" y="0" x="0"></rect><rect class="djs-outline" fill="none" style="" height="92" width="112" y="-6" x="-6"></rect></g></g><g class="djs-group"><g style="display: block;" transform="matrix(1,0,0,1,611,120)" data-element-id="Task_1k5zb19" class="djs-element djs-shape"><g class="djs-visual"><rect fill="#ffffff" stroke="#000000" style="stroke-width: 2;" ry="10" rx="10" height="80" width="100" y="0" x="0"></rect><text class=" djs-label" style="font-family: Arial,sans-serif; font-size: 12px;"><tspan y="36.5" x="33">recibir </tspan><tspan y="50.5" x="15">confirmación </tspan></text></g><rect class="djs-hit" stroke="#ffffff" fill="none" style="stroke-opacity: 0; stroke-width: 15;" height="80" width="100" y="0" x="0"></rect><rect class="djs-outline" fill="none" style="" height="92" width="112" y="-6" x="-6"></rect></g></g><g class="djs-group"><g style="display: block;" transform="matrix(1,0,0,1,770.8938,142)" data-element-id="EndEvent_06w050m" class="djs-element djs-shape selected hover"><g class="djs-visual"><circle fill="#ffffff" stroke="#000000" style="stroke-width: 4;" r="18" cy="18" cx="18"></circle></g><rect class="djs-hit" stroke="#ffffff" fill="none" style="stroke-opacity: 0; stroke-width: 15;" height="36" width="36" y="0" x="0"></rect><rect class="djs-outline" fill="none" style="" height="48" width="48" y="-6" x="-6"></rect></g></g><g class="djs-group"><g style="display: none;" transform="matrix(1,0,0,1,163,178)" data-element-id="StartEvent_1_label" class="djs-element djs-shape"><g class="djs-visual"><text class=" djs-label" style="font-family: Arial,sans-serif; font-size: 11px;"><tspan y="0" x="45"></tspan></text></g><rect class="djs-hit" stroke="#ffffff" fill="none" style="stroke-opacity: 0; stroke-width: 15;" height="20" width="90" y="0" x="0"></rect><rect class="djs-outline" fill="none" style="" height="32" width="102" y="-6" x="-6"></rect></g></g><g class="djs-group"><g style="display: block;" data-element-id="SequenceFlow_1vtrolo" class="djs-element djs-connection"><g class="djs-visual"><path stroke="#000000" fill="none" style="stroke-width: 2; stroke-linejoin: round; marker-end: url(&quot;#markerSii18646m1pf&quot;);" d="m  226,160L293,160 "></path></g><polyline class="djs-hit" stroke="#ffffff" fill="none" style="stroke-opacity: 0; stroke-width: 15;" points="226,160 293,160 "></polyline><rect class="djs-outline" fill="none" style="" height="12" width="79" y="154" x="220"></rect></g></g><g class="djs-group"><g style="display: none;" transform="matrix(1,0,0,1,214.5,150)" data-element-id="SequenceFlow_1vtrolo_label" class="djs-element djs-shape"><g class="djs-visual"><text class=" djs-label" style="font-family: Arial,sans-serif; font-size: 11px;"><tspan y="0" x="45"></tspan></text></g><rect class="djs-hit" stroke="#ffffff" fill="none" style="stroke-opacity: 0; stroke-width: 15;" height="20" width="90" y="0" x="0"></rect><rect class="djs-outline" fill="none" style="" height="32" width="102" y="-6" x="-6"></rect></g></g><g class="djs-group"><g style="display: none;" transform="matrix(1,0,0,1,743.8938,178)" data-element-id="EndEvent_06w050m_label" class="djs-element djs-shape"><g class="djs-visual"><text class=" djs-label" style="font-family: Arial,sans-serif; font-size: 11px;"><tspan y="0" x="45"></tspan></text></g><rect class="djs-hit" stroke="#ffffff" fill="none" style="stroke-opacity: 0; stroke-width: 15;" height="20" width="90" y="0" x="0"></rect><rect class="djs-outline" fill="none" style="" height="32" width="102" y="-6" x="-6"></rect></g></g><g class="djs-group"><g style="display: block;" data-element-id="SequenceFlow_0u79zhe" class="djs-element djs-connection"><g class="djs-visual"><path stroke="#000000" fill="none" style="stroke-width: 2; stroke-linejoin: round; marker-end: url(&quot;#markerSii18646m1pf&quot;);" d="m  711,160L771,160 "></path></g><polyline class="djs-hit" stroke="#ffffff" fill="none" style="stroke-opacity: 0; stroke-width: 15;" points="711,160 771,160 "></polyline><rect class="djs-outline" fill="none" style="" height="12" width="72" y="154" x="705"></rect></g></g><g class="djs-group"><g style="display: none;" transform="matrix(1,0,0,1,696,150)" data-element-id="SequenceFlow_0u79zhe_label" class="djs-element djs-shape"><g class="djs-visual"><text class=" djs-label" style="font-family: Arial,sans-serif; font-size: 11px;"><tspan y="0" x="45"></tspan></text></g><rect class="djs-hit" stroke="#ffffff" fill="none" style="stroke-opacity: 0; stroke-width: 15;" height="20" width="90" y="0" x="0"></rect><rect class="djs-outline" fill="none" style="" height="32" width="102" y="-6" x="-6"></rect></g></g></g></g><g xmlns="http://www.w3.org/2000/svg" class="djs-group"><g style="display: block;" transform="matrix(1,0,0,1,115,471)" data-element-id="Participant_042b00t" class="djs-element djs-shape"><g class="djs-visual"><rect fill="#ffffff" stroke="#000000" style="stroke-width: 2;" ry="0" rx="0" height="313" width="851.3907815631262" y="0" x="0"></rect><polyline stroke="#000000" fill="none" style="stroke-width: 2;" points="30,0 30,313 "></polyline><text transform="matrix(0,-1,1,0,0,313)" class=" djs-label" style="font-family: Arial,sans-serif; font-size: 12px;"><tspan y="18.5" x="138.5">Server</tspan></text></g><rect class="djs-hit" stroke="#ffffff" fill="none" style="stroke-opacity: 0; stroke-width: 15;" height="313" width="851.3907815631262" y="0" x="0"></rect><rect class="djs-outline" fill="none" style="" height="325" width="863.3907815631262" y="-6" x="-6"></rect></g><g class="djs-children"><g class="djs-group"><g style="display: block;" transform="matrix(1,0,0,1,194,681)" data-element-id="DataObjectReference_04gqbbk" class="djs-element djs-shape"><g class="djs-visual"><path stroke="#000000" fill="#ffffff" style="stroke-width: 2;" d="m 0,0 28.23529411764706,0 7.058823529411765,8.196721311475411 0,40.98360655737705 -35.294117647058826,0 0,-49.18032786885246 28.23529411764706,0 0,8.196721311475411 7.058823529411765,0"></path></g><rect class="djs-hit" stroke="#ffffff" fill="none" style="stroke-opacity: 0; stroke-width: 15;" height="50" width="36" y="0" x="0"></rect><rect class="djs-outline" fill="none" style="" height="62" width="48" y="-6" x="-6"></rect></g></g><g class="djs-group"><g style="display: block;" transform="matrix(1,0,0,1,285,632)" data-element-id="ServiceTask_1fmel2x" class="djs-element djs-shape"><g class="djs-visual"><rect fill="#ffffff" stroke="#000000" style="stroke-width: 2;" ry="10" rx="10" height="80" width="100" y="0" x="0"></rect><text class=" djs-label" style="font-family: Arial,sans-serif; font-size: 12px;"><tspan y="43.5" x="12">verificar datos</tspan></text><path stroke="#000000" fill="none" style="stroke-width: 1;" d="m 12,18 v -1.71335 c 0.352326,-0.0705 0.703932,-0.17838 1.047628,-0.32133 0.344416,-0.14465 0.665822,-0.32133 0.966377,-0.52145 l 1.19431,1.18005 1.567487,-1.57688 -1.195028,-1.18014 c 0.403376,-0.61394 0.683079,-1.29908 0.825447,-2.01824 l 1.622133,-0.01 v -2.2196 l -1.636514,0.01 c -0.07333,-0.35153 -0.178319,-0.70024 -0.323564,-1.04372 -0.145244,-0.34406 -0.321407,-0.6644 -0.522735,-0.96217 l 1.131035,-1.13631 -1.583305,-1.56293 -1.129598,1.13589 c -0.614052,-0.40108 -1.302883,-0.68093 -2.022633,-0.82247 l 0.0093,-1.61852 h -2.241173 l 0.0042,1.63124 c -0.353763,0.0736 -0.705369,0.17977 -1.049785,0.32371 -0.344415,0.14437 -0.665102,0.32092 -0.9635006,0.52046 l -1.1698628,-1.15823 -1.5667691,1.5792 1.1684265,1.15669 c -0.4026573,0.61283 -0.68308,1.29797 -0.8247287,2.01713 l -1.6588041,0.003 v 2.22174 l 1.6724648,-0.006 c 0.073327,0.35077 0.1797598,0.70243 0.3242851,1.04472 0.1452428,0.34448 0.3214064,0.6644 0.5227339,0.96066 l -1.1993431,1.19723 1.5840256,1.56011 1.1964668,-1.19348 c 0.6140517,0.40346 1.3028827,0.68232 2.0233517,0.82331 l 7.19e-4,1.69892 h 2.226848 z m 0.221462,-3.9957 c -1.788948,0.7502 -3.8576,-0.0928 -4.6097055,-1.87438 -0.7521065,-1.78321 0.090598,-3.84627 1.8802645,-4.59604 1.78823,-0.74936 3.856881,0.0929 4.608987,1.87437 0.752106,1.78165 -0.0906,3.84612 -1.879546,4.59605 z"></path><path stroke="none" fill="#ffffff" style="stroke-width: 0;" d="m 17.2,18 c -1.788948,0.7502 -3.8576,-0.0928 -4.6097055,-1.87438 -0.7521065,-1.78321 0.090598,-3.84627 1.8802645,-4.59604 1.78823,-0.74936 3.856881,0.0929 4.608987,1.87437 0.752106,1.78165 -0.0906,3.84612 -1.879546,4.59605 z"></path><path stroke="#000000" fill="#ffffff" style="stroke-width: 1;" d="m 17,22 v -1.71335 c 0.352326,-0.0705 0.703932,-0.17838 1.047628,-0.32133 0.344416,-0.14465 0.665822,-0.32133 0.966377,-0.52145 l 1.19431,1.18005 1.567487,-1.57688 -1.195028,-1.18014 c 0.403376,-0.61394 0.683079,-1.29908 0.825447,-2.01824 l 1.622133,-0.01 v -2.2196 l -1.636514,0.01 c -0.07333,-0.35153 -0.178319,-0.70024 -0.323564,-1.04372 -0.145244,-0.34406 -0.321407,-0.6644 -0.522735,-0.96217 l 1.131035,-1.13631 -1.583305,-1.56293 -1.129598,1.13589 c -0.614052,-0.40108 -1.302883,-0.68093 -2.022633,-0.82247 l 0.0093,-1.61852 h -2.241173 l 0.0042,1.63124 c -0.353763,0.0736 -0.705369,0.17977 -1.049785,0.32371 -0.344415,0.14437 -0.665102,0.32092 -0.9635006,0.52046 l -1.1698628,-1.15823 -1.5667691,1.5792 1.1684265,1.15669 c -0.4026573,0.61283 -0.68308,1.29797 -0.8247287,2.01713 l -1.6588041,0.003 v 2.22174 l 1.6724648,-0.006 c 0.073327,0.35077 0.1797598,0.70243 0.3242851,1.04472 0.1452428,0.34448 0.3214064,0.6644 0.5227339,0.96066 l -1.1993431,1.19723 1.5840256,1.56011 1.1964668,-1.19348 c 0.6140517,0.40346 1.3028827,0.68232 2.0233517,0.82331 l 7.19e-4,1.69892 h 2.226848 z m 0.221462,-3.9957 c -1.788948,0.7502 -3.8576,-0.0928 -4.6097055,-1.87438 -0.7521065,-1.78321 0.090598,-3.84627 1.8802645,-4.59604 1.78823,-0.74936 3.856881,0.0929 4.608987,1.87437 0.752106,1.78165 -0.0906,3.84612 -1.879546,4.59605 z"></path></g><rect class="djs-hit" stroke="#ffffff" fill="none" style="stroke-opacity: 0; stroke-width: 15;" height="80" width="100" y="0" x="0"></rect><rect class="djs-outline" fill="none" style="" height="92" width="112" y="-6" x="-6"></rect></g></g><g class="djs-group"><g style="display: block;" transform="matrix(1,0,0,1,469,647)" data-element-id="ExclusiveGateway_0dgrfch" class="djs-element djs-shape"><g class="djs-visual"><polygon fill="#ffffff" stroke="#000000" style="stroke-width: 2;" points="25,0,50,25,25,50,0,25"></polygon><path stroke="#000000" fill="#000000" style="stroke-width: 1;" d="m 16,15 7.42857142857143,9.714285714285715 -7.42857142857143,9.714285714285715 3.428571428571429,0 5.714285714285715,-7.464228571428572 5.714285714285715,7.464228571428572 3.428571428571429,0 -7.42857142857143,-9.714285714285715 7.42857142857143,-9.714285714285715 -3.428571428571429,0 -5.714285714285715,7.464228571428572 -5.714285714285715,-7.464228571428572 -3.428571428571429,0 z"></path></g><rect class="djs-hit" stroke="#ffffff" fill="none" style="stroke-opacity: 0; stroke-width: 15;" height="50" width="50" y="0" x="0"></rect><rect class="djs-outline" fill="none" style="" height="62" width="62" y="-6" x="-6"></rect></g></g><g class="djs-group"><g style="display: block;" transform="matrix(1,0,0,1,611,632)" data-element-id="ServiceTask_1phbch7" class="djs-element djs-shape"><g class="djs-visual"><rect fill="#ffffff" stroke="#000000" style="stroke-width: 2;" ry="10" rx="10" height="80" width="100" y="0" x="0"></rect><text class=" djs-label" style="font-family: Arial,sans-serif; font-size: 12px;"><tspan y="43.5" x="6.5">agregar usuario</tspan></text><path stroke="#000000" fill="none" style="stroke-width: 1;" d="m 12,18 v -1.71335 c 0.352326,-0.0705 0.703932,-0.17838 1.047628,-0.32133 0.344416,-0.14465 0.665822,-0.32133 0.966377,-0.52145 l 1.19431,1.18005 1.567487,-1.57688 -1.195028,-1.18014 c 0.403376,-0.61394 0.683079,-1.29908 0.825447,-2.01824 l 1.622133,-0.01 v -2.2196 l -1.636514,0.01 c -0.07333,-0.35153 -0.178319,-0.70024 -0.323564,-1.04372 -0.145244,-0.34406 -0.321407,-0.6644 -0.522735,-0.96217 l 1.131035,-1.13631 -1.583305,-1.56293 -1.129598,1.13589 c -0.614052,-0.40108 -1.302883,-0.68093 -2.022633,-0.82247 l 0.0093,-1.61852 h -2.241173 l 0.0042,1.63124 c -0.353763,0.0736 -0.705369,0.17977 -1.049785,0.32371 -0.344415,0.14437 -0.665102,0.32092 -0.9635006,0.52046 l -1.1698628,-1.15823 -1.5667691,1.5792 1.1684265,1.15669 c -0.4026573,0.61283 -0.68308,1.29797 -0.8247287,2.01713 l -1.6588041,0.003 v 2.22174 l 1.6724648,-0.006 c 0.073327,0.35077 0.1797598,0.70243 0.3242851,1.04472 0.1452428,0.34448 0.3214064,0.6644 0.5227339,0.96066 l -1.1993431,1.19723 1.5840256,1.56011 1.1964668,-1.19348 c 0.6140517,0.40346 1.3028827,0.68232 2.0233517,0.82331 l 7.19e-4,1.69892 h 2.226848 z m 0.221462,-3.9957 c -1.788948,0.7502 -3.8576,-0.0928 -4.6097055,-1.87438 -0.7521065,-1.78321 0.090598,-3.84627 1.8802645,-4.59604 1.78823,-0.74936 3.856881,0.0929 4.608987,1.87437 0.752106,1.78165 -0.0906,3.84612 -1.879546,4.59605 z"></path><path stroke="none" fill="#ffffff" style="stroke-width: 0;" d="m 17.2,18 c -1.788948,0.7502 -3.8576,-0.0928 -4.6097055,-1.87438 -0.7521065,-1.78321 0.090598,-3.84627 1.8802645,-4.59604 1.78823,-0.74936 3.856881,0.0929 4.608987,1.87437 0.752106,1.78165 -0.0906,3.84612 -1.879546,4.59605 z"></path><path stroke="#000000" fill="#ffffff" style="stroke-width: 1;" d="m 17,22 v -1.71335 c 0.352326,-0.0705 0.703932,-0.17838 1.047628,-0.32133 0.344416,-0.14465 0.665822,-0.32133 0.966377,-0.52145 l 1.19431,1.18005 1.567487,-1.57688 -1.195028,-1.18014 c 0.403376,-0.61394 0.683079,-1.29908 0.825447,-2.01824 l 1.622133,-0.01 v -2.2196 l -1.636514,0.01 c -0.07333,-0.35153 -0.178319,-0.70024 -0.323564,-1.04372 -0.145244,-0.34406 -0.321407,-0.6644 -0.522735,-0.96217 l 1.131035,-1.13631 -1.583305,-1.56293 -1.129598,1.13589 c -0.614052,-0.40108 -1.302883,-0.68093 -2.022633,-0.82247 l 0.0093,-1.61852 h -2.241173 l 0.0042,1.63124 c -0.353763,0.0736 -0.705369,0.17977 -1.049785,0.32371 -0.344415,0.14437 -0.665102,0.32092 -0.9635006,0.52046 l -1.1698628,-1.15823 -1.5667691,1.5792 1.1684265,1.15669 c -0.4026573,0.61283 -0.68308,1.29797 -0.8247287,2.01713 l -1.6588041,0.003 v 2.22174 l 1.6724648,-0.006 c 0.073327,0.35077 0.1797598,0.70243 0.3242851,1.04472 0.1452428,0.34448 0.3214064,0.6644 0.5227339,0.96066 l -1.1993431,1.19723 1.5840256,1.56011 1.1964668,-1.19348 c 0.6140517,0.40346 1.3028827,0.68232 2.0233517,0.82331 l 7.19e-4,1.69892 h 2.226848 z m 0.221462,-3.9957 c -1.788948,0.7502 -3.8576,-0.0928 -4.6097055,-1.87438 -0.7521065,-1.78321 0.090598,-3.84627 1.8802645,-4.59604 1.78823,-0.74936 3.856881,0.0929 4.608987,1.87437 0.752106,1.78165 -0.0906,3.84612 -1.879546,4.59605 z"></path></g><rect class="djs-hit" stroke="#ffffff" fill="none" style="stroke-opacity: 0; stroke-width: 15;" height="80" width="100" y="0" x="0"></rect><rect class="djs-outline" fill="none" style="" height="92" width="112" y="-6" x="-6"></rect></g></g><g class="djs-group"><g style="display: block;" transform="matrix(1,0,0,1,611.3908,500)" data-element-id="Task_1wkw9sp" class="djs-element djs-shape"><g class="djs-visual"><rect fill="#ffffff" stroke="#000000" style="stroke-width: 2;" ry="10" rx="10" height="80" width="100" y="0" x="0"></rect><text class=" djs-label" style="font-family: Arial,sans-serif; font-size: 12px;"><tspan y="36.5" x="33">enviar </tspan><tspan y="50.5" x="23">respuesta </tspan></text></g><rect class="djs-hit" stroke="#ffffff" fill="none" style="stroke-opacity: 0; stroke-width: 15;" height="80" width="100" y="0" x="0"></rect><rect class="djs-outline" fill="none" style="" height="92" width="112" y="-6" x="-6"></rect></g></g><g class="djs-group"><g style="display: block;" data-element-id="DataInputAssociation_12c8bxc" class="djs-element djs-connection"><g class="djs-visual"><polyline stroke="#000000" fill="none" style="stroke-width: 2; stroke-dasharray: 1, 6; stroke-linecap: round; stroke-linejoin: round; marker-end: url(&quot;#markerSii18646m1pl&quot;);" points="230,701 285,686 "></polyline></g><polyline class="djs-hit" stroke="#ffffff" fill="none" style="stroke-opacity: 0; stroke-width: 15;" points="230,701 285,686 "></polyline><rect class="djs-outline" fill="none" style="" height="27" width="67" y="680" x="224"></rect></g></g><g class="djs-group"><g style="display: block;" data-element-id="SequenceFlow_1gks4yd" class="djs-element djs-connection"><g class="djs-visual"><path stroke="#000000" fill="none" style="stroke-width: 2; stroke-linejoin: round; marker-end: url(&quot;#markerSii18646m1pf&quot;);" d="m  385,672L469,672 "></path></g><polyline class="djs-hit" stroke="#ffffff" fill="none" style="stroke-opacity: 0; stroke-width: 15;" points="385,672 469,672 "></polyline><rect class="djs-outline" fill="none" style="" height="12" width="96" y="666" x="379"></rect></g></g><g class="djs-group"><g style="display: block;" data-element-id="SequenceFlow_1hjz0et" class="djs-element djs-connection"><g class="djs-visual"><path stroke="#000000" fill="none" style="stroke-width: 2; stroke-linejoin: round; marker-end: url(&quot;#markerSii18646m1pf&quot;);" d="m  519,672L611,672 "></path></g><polyline class="djs-hit" stroke="#ffffff" fill="none" style="stroke-opacity: 0; stroke-width: 15;" points="519,672 611,672 "></polyline><rect class="djs-outline" fill="none" style="" height="12" width="104" y="666" x="513"></rect></g></g><g class="djs-group"><g style="display: block;" data-element-id="SequenceFlow_14or81p" class="djs-element djs-connection"><g class="djs-visual"><path stroke="#000000" fill="none" style="stroke-width: 2; stroke-linejoin: round; marker-end: url(&quot;#markerSii18646m1pf&quot;);" d="m  661,632L661,580 "></path></g><polyline class="djs-hit" stroke="#ffffff" fill="none" style="stroke-opacity: 0; stroke-width: 15;" points="661,632 661,580 "></polyline><rect class="djs-outline" fill="none" style="" height="64" width="12" y="574" x="655"></rect></g></g><g class="djs-group"><g style="display: block;" transform="matrix(1,0,0,1,167,731)" data-element-id="DataObjectReference_04gqbbk_label" class="djs-element djs-shape"><g class="djs-visual"><text class=" djs-label" style="font-family: Arial,sans-serif; font-size: 11px;"><tspan y="13" x="19">social auth</tspan></text></g><rect class="djs-hit" stroke="#ffffff" fill="none" style="stroke-opacity: 0; stroke-width: 15;" height="20" width="90" y="0" x="0"></rect><rect class="djs-outline" fill="none" style="" height="32" width="102" y="-6" x="-6"></rect></g></g><g class="djs-group"><g style="display: none;" transform="matrix(1,0,0,1,361.5,662)" data-element-id="SequenceFlow_1gks4yd_label" class="djs-element djs-shape"><g class="djs-visual"><text class=" djs-label" style="font-family: Arial,sans-serif; font-size: 11px;"><tspan y="0" x="45"></tspan></text></g><rect class="djs-hit" stroke="#ffffff" fill="none" style="stroke-opacity: 0; stroke-width: 15;" height="20" width="90" y="0" x="0"></rect><rect class="djs-outline" fill="none" style="" height="32" width="102" y="-6" x="-6"></rect></g></g><g class="djs-group"><g style="display: block;" transform="matrix(1,0,0,1,449,697)" data-element-id="ExclusiveGateway_0dgrfch_label" class="djs-element djs-shape"><g class="djs-visual"><text class=" djs-label" style="font-family: Arial,sans-serif; font-size: 11px;"><tspan y="13" x="28">valido?</tspan></text></g><rect class="djs-hit" stroke="#ffffff" fill="none" style="stroke-opacity: 0; stroke-width: 15;" height="20" width="90" y="0" x="0"></rect><rect class="djs-outline" fill="none" style="" height="32" width="102" y="-6" x="-6"></rect></g></g><g class="djs-group"><g style="display: none;" transform="matrix(1,0,0,1,693.5,662)" data-element-id="SequenceFlow_14or81p_label" class="djs-element djs-shape"><g class="djs-visual"><text class=" djs-label" style="font-family: Arial,sans-serif; font-size: 11px;"><tspan y="0" x="45"></tspan></text></g><rect class="djs-hit" stroke="#ffffff" fill="none" style="stroke-opacity: 0; stroke-width: 15;" height="20" width="90" y="0" x="0"></rect><rect class="djs-outline" fill="none" style="" height="32" width="102" y="-6" x="-6"></rect></g></g><g class="djs-group"><g style="display: block;" transform="matrix(1,0,0,1,516,672)" data-element-id="SequenceFlow_1hjz0et_label" class="djs-element djs-shape"><g class="djs-visual"><text class=" djs-label" style="font-family: Arial,sans-serif; font-size: 11px;"><tspan y="13" x="35.5">true</tspan></text></g><rect class="djs-hit" stroke="#ffffff" fill="none" style="stroke-opacity: 0; stroke-width: 15;" height="20" width="90" y="0" x="0"></rect><rect class="djs-outline" fill="none" style="" height="32" width="102" y="-6" x="-6"></rect></g></g><g class="djs-group"><g style="display: block;" data-element-id="SequenceFlow_1e0hphu" class="djs-element djs-connection"><g class="djs-visual"><path stroke="#000000" fill="none" style="stroke-width: 2; stroke-linejoin: round; marker-end: url(&quot;#markerSii18646m1pf&quot;);" d="m  494,647L494,540 L611,540 "></path></g><polyline class="djs-hit" stroke="#ffffff" fill="none" style="stroke-opacity: 0; stroke-width: 15;" points="494,647 494,540 611,540 "></polyline><rect class="djs-outline" fill="none" style="" height="119" width="129" y="534" x="488"></rect></g></g><g class="djs-group"><g style="display: none;" transform="matrix(1,0,0,1,449,583.5)" data-element-id="SequenceFlow_1e0hphu_label" class="djs-element djs-shape"><g class="djs-visual"><text class=" djs-label" style="font-family: Arial,sans-serif; font-size: 11px;"><tspan y="0" x="45"></tspan></text></g><rect class="djs-hit" stroke="#ffffff" fill="none" style="stroke-opacity: 0; stroke-width: 15;" height="20" width="90" y="0" x="0"></rect><rect class="djs-outline" fill="none" style="" height="32" width="102" y="-6" x="-6"></rect></g></g></g></g><g xmlns="http://www.w3.org/2000/svg" class="djs-group"><g style="display: block;" data-element-id="MessageFlow_1h21c1y" class="djs-element djs-connection"><g class="djs-visual"><path stroke="#000000" fill="none" style="stroke-width: 1.5px; marker-end: url(&quot;#markerSii18646m1pj&quot;); marker-start: url(&quot;#markerSii18646m1ph&quot;); stroke-dasharray: 10, 12; stroke-linecap: round; stroke-linejoin: round;" d="m  343,200L343,632 "></path></g><polyline class="djs-hit" stroke="#ffffff" fill="none" style="stroke-opacity: 0; stroke-width: 15;" points="343,200 343,632 "></polyline><rect class="djs-outline" fill="none" style="" height="444" width="12" y="194" x="337"></rect></g></g><g xmlns="http://www.w3.org/2000/svg" class="djs-group"><g style="display: none;" transform="matrix(1,0,0,1,298,353)" data-element-id="MessageFlow_1h21c1y_label" class="djs-element djs-shape"><g class="djs-visual"><text class=" djs-label" style="font-family: Arial,sans-serif; font-size: 11px;"><tspan y="0" x="45"></tspan></text></g><rect class="djs-hit" stroke="#ffffff" fill="none" style="stroke-opacity: 0; stroke-width: 15;" height="20" width="90" y="0" x="0"></rect><rect class="djs-outline" fill="none" style="" height="32" width="102" y="-6" x="-6"></rect></g></g><g xmlns="http://www.w3.org/2000/svg" class="djs-group"><g style="display: block;" data-element-id="MessageFlow_1f74h5p" class="djs-element djs-connection"><g class="djs-visual"><path stroke="#000000" fill="none" style="stroke-width: 1.5px; marker-end: url(&quot;#markerSii18646m1pj&quot;); marker-start: url(&quot;#markerSii18646m1ph&quot;); stroke-dasharray: 10, 12; stroke-linecap: round; stroke-linejoin: round;" d="m  661,500L661,200 "></path></g><polyline class="djs-hit" stroke="#ffffff" fill="none" style="stroke-opacity: 0; stroke-width: 15;" points="661,500 661,200 "></polyline><rect class="djs-outline" fill="none" style="" height="312" width="12" y="194" x="655"></rect></g></g><g xmlns="http://www.w3.org/2000/svg" class="djs-group"><g style="display: none;" transform="matrix(1,0,0,1,616,340)" data-element-id="MessageFlow_1f74h5p_label" class="djs-element djs-shape"><g class="djs-visual"><text class=" djs-label" style="font-family: Arial,sans-serif; font-size: 11px;"><tspan y="0" x="45"></tspan></text></g><rect class="djs-hit" stroke="#ffffff" fill="none" style="stroke-opacity: 0; stroke-width: 15;" height="20" width="90" y="0" x="0"></rect><rect class="djs-outline" fill="none" style="" height="32" width="102" y="-6" x="-6"></rect></g></g></svg>