<?xml version="1.0" encoding="utf-8"?>
<!-- created with bpmn-js / http://bpmn.io -->
<!DOCTYPE svg PUBLIC "-//W3C//DTD SVG 1.1//EN" "http://www.w3.org/Graphics/SVG/1.1/DTD/svg11.dtd">
<svg xmlns="http://www.w3.org/2000/svg" xmlns:xlink="http://www.w3.org/1999/xlink" width="1279.4317626953125" height="757" viewBox="117 76 1279.4317626953125 757" version="1.1"><defs><marker viewBox="0 0 20 20" markerWidth="10" markerHeight="10" orient="auto" refX="11" refY="10" id="markerSihwvw78q1nb"><path d="M 1 5 L 11 10 L 1 15 Z" style="stroke-width: 1; stroke-linecap: round; stroke-dasharray: 10000, 1;" fill="#000000"/></marker><marker viewBox="0 0 20 20" markerWidth="20" markerHeight="20" orient="auto" refX="6" refY="6" id="markerSihwvw78q1nd"><circle cx="6" cy="6" r="3.5" style="stroke-width: 1; stroke-linecap: round; stroke-dasharray: 10000, 1;" fill="#ffffff" stroke="#000000"/></marker><marker viewBox="0 0 20 20" markerWidth="20" markerHeight="20" orient="auto" refX="8.5" refY="5" id="markerSihwvw78q1nf"><path d="m 1 5 l 0 -3 l 7 3 l -7 3 z" style="stroke-width: 1; stroke-linecap: butt; stroke-dasharray: 10000, 1;" fill="#ffffff" stroke="#000000"/></marker><marker viewBox="0 0 20 20" markerWidth="10" markerHeight="10" orient="auto" refX="11" refY="10" id="markerSihwvw78q1nh"><path d="M 1 5 L 11 10 L 1 15" style="stroke-width: 1; stroke-linecap: round; stroke-dasharray: 10000, 1;" fill="#ffffff" stroke="#000000"/></marker><marker viewBox="0 0 20 20" markerWidth="10" markerHeight="10" orient="auto" refX="-1" refY="10" id="markerSihwvw78q1nj"><path d="M 0 10 L 8 6 L 16 10 L 8 14 Z" style="stroke-width: 1; stroke-linecap: round; stroke-dasharray: 10000, 1;" fill="#ffffff" stroke="#000000"/></marker><marker viewBox="0 0 20 20" markerWidth="10" markerHeight="10" orient="auto" refX="-5" refY="10" id="markerSihwvw78q1nl"><path d="M 1 4 L 5 16" style="stroke-width: 1; stroke-linecap: round; stroke-dasharray: 10000, 1;" fill="#000000" stroke="#000000"/></marker></defs><g xmlns="http://www.w3.org/2000/svg" class="djs-group"><g style="display: block;" transform="matrix(1,0,0,1,123,82)" data-element-id="Participant_0uubwsm" class="djs-element djs-shape"><g class="djs-visual"><rect fill="#ffffff" stroke="#000000" style="stroke-width: 2;" ry="0" rx="0" height="745" width="1267.4317295188557" y="0" x="0"></rect><polyline stroke="#000000" fill="none" style="stroke-width: 2;" points="30,0 30,745 "></polyline><text transform="matrix(0,-1,1,0,0,745)" class=" djs-label" style="font-family: Arial,sans-serif; font-size: 12px;"><tspan y="15" x="372.5"></tspan></text></g><rect class="djs-hit" stroke="#ffffff" fill="none" style="stroke-opacity: 0; stroke-width: 15;" height="745" width="1267.4317295188557" y="0" x="0"></rect><rect class="djs-outline" fill="none" style="" height="757" width="1279.4317295188557" y="-6" x="-6"></rect></g><g class="djs-children"><g class="djs-group"><g style="display: block;" transform="matrix(1,0,0,1,153,82)" data-element-id="Lane_0lp9vvr" class="djs-element djs-shape"><g class="djs-visual"><rect fill="none" stroke="#000000" style="stroke-width: 2;" ry="0" rx="0" height="250" width="1237.4317295188557" y="0" x="0"></rect><text transform="matrix(0,-1,1,0,0,250)" class=" djs-label" style="font-family: Arial,sans-serif; font-size: 12px;"><tspan y="15" x="125"></tspan></text></g><rect class="djs-hit" stroke="#ffffff" fill="none" style="stroke-opacity: 0; stroke-width: 15;" height="250" width="1237.4317295188557" y="0" x="0"></rect><rect class="djs-outline" fill="none" style="" height="262" width="1249.4317295188557" y="-6" x="-6"></rect></g></g><g class="djs-group"><g style="display: block;" transform="matrix(1,0,0,1,153,332)" data-element-id="Lane_1an9suf" class="djs-element djs-shape"><g class="djs-visual"><rect fill="none" stroke="#000000" style="stroke-width: 2;" ry="0" rx="0" height="191" width="1237.4317295188557" y="0" x="0"></rect><text transform="matrix(0,-1,1,0,0,191)" class=" djs-label" style="font-family: Arial,sans-serif; font-size: 12px;"><tspan y="15" x="95.5"></tspan></text></g><rect class="djs-hit" stroke="#ffffff" fill="none" style="stroke-opacity: 0; stroke-width: 15;" height="191" width="1237.4317295188557" y="0" x="0"></rect><rect class="djs-outline" fill="none" style="" height="203" width="1249.4317295188557" y="-6" x="-6"></rect></g></g><g class="djs-group"><g style="display: block;" transform="matrix(1,0,0,1,153,523)" data-element-id="Lane_0o5m4bx" class="djs-element djs-shape"><g class="djs-visual"><rect fill="none" stroke="#000000" style="stroke-width: 2;" ry="0" rx="0" height="304" width="1237.4317295188557" y="0" x="0"></rect><text transform="matrix(0,-1,1,0,0,304)" class=" djs-label" style="font-family: Arial,sans-serif; font-size: 12px;"><tspan y="15" x="152"></tspan></text></g><rect class="djs-hit" stroke="#ffffff" fill="none" style="stroke-opacity: 0; stroke-width: 15;" height="304" width="1237.4317295188557" y="0" x="0"></rect><rect class="djs-outline" fill="none" style="" height="316" width="1249.4317295188557" y="-6" x="-6"></rect></g></g><g class="djs-group"><g style="display: block;" transform="matrix(1,0,0,1,180,162)" data-element-id="StartEvent_1" class="djs-element djs-shape"><g class="djs-visual"><circle fill="#ffffff" stroke="#000000" style="stroke-width: 2;" r="18" cy="18" cx="18"></circle></g><rect class="djs-hit" stroke="#ffffff" fill="none" style="stroke-opacity: 0; stroke-width: 15;" height="36" width="36" y="0" x="0"></rect><rect class="djs-outline" fill="none" style="" height="48" width="48" y="-6" x="-6"></rect></g></g><g class="djs-group"><g style="display: block;" transform="matrix(1,0,0,1,282,140)" data-element-id="Task_1waqpbf" class="djs-element djs-shape"><g class="djs-visual"><rect fill="#ffffff" stroke="#000000" style="stroke-width: 2;" ry="10" rx="10" height="80" width="100" y="0" x="0"></rect><text class=" djs-label" style="font-family: Arial,sans-serif; font-size: 12px;"><tspan y="36.5" x="13">anotar gustos </tspan><tspan y="50.5" x="32.5">pizzas </tspan></text></g><rect class="djs-hit" stroke="#ffffff" fill="none" style="stroke-opacity: 0; stroke-width: 15;" height="80" width="100" y="0" x="0"></rect><rect class="djs-outline" fill="none" style="" height="92" width="112" y="-6" x="-6"></rect></g></g><g class="djs-group"><g style="display: block;" transform="matrix(1,0,0,1,429,140)" data-element-id="Task_17f924q" class="djs-element djs-shape"><g class="djs-visual"><rect fill="#ffffff" stroke="#000000" style="stroke-width: 2;" ry="10" rx="10" height="80" width="100" y="0" x="0"></rect><text class=" djs-label" style="font-family: Arial,sans-serif; font-size: 12px;"><tspan y="36.5" x="14.5">enviar nota a </tspan><tspan y="50.5" x="26.5">cocinero </tspan></text></g><rect class="djs-hit" stroke="#ffffff" fill="none" style="stroke-opacity: 0; stroke-width: 15;" height="80" width="100" y="0" x="0"></rect><rect class="djs-outline" fill="none" style="" height="92" width="112" y="-6" x="-6"></rect></g></g><g class="djs-group"><g style="display: block;" transform="matrix(1,0,0,1,282,376)" data-element-id="Task_1vm81mg" class="djs-element djs-shape"><g class="djs-visual"><rect fill="#ffffff" stroke="#000000" style="stroke-width: 2;" ry="10" rx="10" height="80" width="100" y="0" x="0"></rect><text class=" djs-label" style="font-family: Arial,sans-serif; font-size: 12px;"><tspan y="43.5" x="26">leer nota</tspan></text></g><rect class="djs-hit" stroke="#ffffff" fill="none" style="stroke-opacity: 0; stroke-width: 15;" height="80" width="100" y="0" x="0"></rect><rect class="djs-outline" fill="none" style="" height="92" width="112" y="-6" x="-6"></rect></g></g><g class="djs-group"><g style="display: block;" transform="matrix(1,0,0,1,429,376)" data-element-id="Task_0vbv6cd" class="djs-element djs-shape"><g class="djs-visual"><rect fill="#ffffff" stroke="#000000" style="stroke-width: 2;" ry="10" rx="10" height="80" width="100" y="0" x="0"></rect><text class=" djs-label" style="font-family: Arial,sans-serif; font-size: 12px;"><tspan y="36.5" x="18.5">seleccionar </tspan><tspan y="50.5" x="16">ingredientes </tspan></text></g><rect class="djs-hit" stroke="#ffffff" fill="none" style="stroke-opacity: 0; stroke-width: 15;" height="80" width="100" y="0" x="0"></rect><rect class="djs-outline" fill="none" style="" height="92" width="112" y="-6" x="-6"></rect></g></g><g class="djs-group"><g style="display: block;" transform="matrix(1,0,0,1,578,376)" data-element-id="Task_12yognn" class="djs-element djs-shape"><g class="djs-visual"><rect fill="#ffffff" stroke="#000000" style="stroke-width: 2;" ry="10" rx="10" height="80" width="100" y="0" x="0"></rect><text class=" djs-label" style="font-family: Arial,sans-serif; font-size: 12px;"><tspan y="43.5" x="14">cocinar pizza</tspan></text></g><rect class="djs-hit" stroke="#ffffff" fill="none" style="stroke-opacity: 0; stroke-width: 15;" height="80" width="100" y="0" x="0"></rect><rect class="djs-outline" fill="none" style="" height="92" width="112" y="-6" x="-6"></rect></g></g><g class="djs-group"><g style="display: block;" transform="matrix(1,0,0,1,578,541.7529)" data-element-id="Task_0ythcje" class="djs-element djs-shape"><g class="djs-visual"><rect fill="#ffffff" stroke="#000000" style="stroke-width: 2;" ry="10" rx="10" height="80" width="100" y="0" x="0"></rect><text class=" djs-label" style="font-family: Arial,sans-serif; font-size: 12px;"><tspan y="43.5" x="17">recibir pizza</tspan></text></g><rect class="djs-hit" stroke="#ffffff" fill="none" style="stroke-opacity: 0; stroke-width: 15;" height="80" width="100" y="0" x="0"></rect><rect class="djs-outline" fill="none" style="" height="92" width="112" y="-6" x="-6"></rect></g></g><g class="djs-group"><g style="display: block;" transform="matrix(1,0,0,1,729.4317,557)" data-element-id="ExclusiveGateway_0ep8867" class="djs-element djs-shape"><g class="djs-visual"><polygon fill="#ffffff" stroke="#000000" style="stroke-width: 2;" points="25,0,50,25,25,50,0,25"></polygon><path stroke="#000000" fill="#000000" style="stroke-width: 1;" d="m 16,15 7.42857142857143,9.714285714285715 -7.42857142857143,9.714285714285715 3.428571428571429,0 5.714285714285715,-7.464228571428572 5.714285714285715,7.464228571428572 3.428571428571429,0 -7.42857142857143,-9.714285714285715 7.42857142857143,-9.714285714285715 -3.428571428571429,0 -5.714285714285715,7.464228571428572 -5.714285714285715,-7.464228571428572 -3.428571428571429,0 z"></path></g><rect class="djs-hit" stroke="#ffffff" fill="none" style="stroke-opacity: 0; stroke-width: 15;" height="50" width="50" y="0" x="0"></rect><rect class="djs-outline" fill="none" style="" height="62" width="62" y="-6" x="-6"></rect></g></g><g class="djs-group"><g style="display: block;" transform="matrix(1,0,0,1,837.4317,542)" data-element-id="Task_0s1tfih" class="djs-element djs-shape"><g class="djs-visual"><rect fill="#ffffff" stroke="#000000" style="stroke-width: 2;" ry="10" rx="10" height="80" width="100" y="0" x="0"></rect><text class=" djs-label" style="font-family: Arial,sans-serif; font-size: 12px;"><tspan y="43.5" x="15.5">imprimir tiket</tspan></text></g><rect class="djs-hit" stroke="#ffffff" fill="none" style="stroke-opacity: 0; stroke-width: 15;" height="80" width="100" y="0" x="0"></rect><rect class="djs-outline" fill="none" style="" height="92" width="112" y="-6" x="-6"></rect></g></g><g class="djs-group"><g style="display: block;" transform="matrix(1,0,0,1,837,656.1873)" data-element-id="Task_1tdrz4u" class="djs-element djs-shape"><g class="djs-visual"><rect fill="#ffffff" stroke="#000000" style="stroke-width: 2;" ry="10" rx="10" height="80" width="100" y="0" x="0"></rect><text class=" djs-label" style="font-family: Arial,sans-serif; font-size: 12px;"><tspan y="36.5" x="8">empaquetapizz</tspan><tspan y="50.5" x="46.5">a </tspan></text></g><rect class="djs-hit" stroke="#ffffff" fill="none" style="stroke-opacity: 0; stroke-width: 15;" height="80" width="100" y="0" x="0"></rect><rect class="djs-outline" fill="none" style="" height="92" width="112" y="-6" x="-6"></rect></g></g><g class="djs-group"><g style="display: block;" transform="matrix(1,0,0,1,1016.4317,557)" data-element-id="ExclusiveGateway_0wh2sld" class="djs-element djs-shape hover"><g class="djs-visual"><polygon fill="#ffffff" stroke="#000000" style="stroke-width: 2;" points="25,0,50,25,25,50,0,25"></polygon><path stroke="#000000" fill="#000000" style="stroke-width: 1;" d="m 16,15 7.42857142857143,9.714285714285715 -7.42857142857143,9.714285714285715 3.428571428571429,0 5.714285714285715,-7.464228571428572 5.714285714285715,7.464228571428572 3.428571428571429,0 -7.42857142857143,-9.714285714285715 7.42857142857143,-9.714285714285715 -3.428571428571429,0 -5.714285714285715,7.464228571428572 -5.714285714285715,-7.464228571428572 -3.428571428571429,0 z"></path></g><rect class="djs-hit" stroke="#ffffff" fill="none" style="stroke-opacity: 0; stroke-width: 15;" height="50" width="50" y="0" x="0"></rect><rect class="djs-outline" fill="none" style="" height="62" width="62" y="-6" x="-6"></rect></g></g><g class="djs-group"><g style="display: block;" transform="matrix(1,0,0,1,753.4317,376)" data-element-id="Task_07zjmwm" class="djs-element djs-shape"><g class="djs-visual"><rect fill="#ffffff" stroke="#000000" style="stroke-width: 2;" ry="10" rx="10" height="80" width="100" y="0" x="0"></rect><text class=" djs-label" style="font-family: Arial,sans-serif; font-size: 12px;"><tspan y="36.5" x="21">despachar </tspan><tspan y="50.5" x="35.5">pizza </tspan></text></g><rect class="djs-hit" stroke="#ffffff" fill="none" style="stroke-opacity: 0; stroke-width: 15;" height="80" width="100" y="0" x="0"></rect><rect class="djs-outline" fill="none" style="" height="92" width="112" y="-6" x="-6"></rect></g></g><g class="djs-group"><g style="display: block;" transform="matrix(1,0,0,1,1103.4317,542)" data-element-id="Task_1cz8aco" class="djs-element djs-shape selected"><g class="djs-visual"><rect fill="#ffffff" stroke="#000000" style="stroke-width: 2;" ry="10" rx="10" height="80" width="100" y="0" x="0"></rect><text class=" djs-label" style="font-family: Arial,sans-serif; font-size: 12px;"><tspan y="36.5" x="22">entregar a </tspan><tspan y="50.5" x="28.5">delivery </tspan></text></g><rect class="djs-hit" stroke="#ffffff" fill="none" style="stroke-opacity: 0; stroke-width: 15;" height="80" width="100" y="0" x="0"></rect><rect class="djs-outline" fill="none" style="" height="92" width="112" y="-6" x="-6"></rect></g></g><g class="djs-group"><g style="display: block;" transform="matrix(1,0,0,1,1254.4317,564)" data-element-id="EndEvent_19z0ira" class="djs-element djs-shape"><g class="djs-visual"><circle fill="#ffffff" stroke="#000000" style="stroke-width: 4;" r="18" cy="18" cx="18"></circle></g><rect class="djs-hit" stroke="#ffffff" fill="none" style="stroke-opacity: 0; stroke-width: 15;" height="36" width="36" y="0" x="0"></rect><rect class="djs-outline" fill="none" style="" height="48" width="48" y="-6" x="-6"></rect></g></g><g class="djs-group"><g style="display: none;" transform="matrix(1,0,0,1,153,198)" data-element-id="StartEvent_1_label" class="djs-element djs-shape"><g class="djs-visual"><text class=" djs-label" style="font-family: Arial,sans-serif; font-size: 11px;"><tspan y="0" x="45"></tspan></text></g><rect class="djs-hit" stroke="#ffffff" fill="none" style="stroke-opacity: 0; stroke-width: 15;" height="20" width="90" y="0" x="0"></rect><rect class="djs-outline" fill="none" style="" height="32" width="102" y="-6" x="-6"></rect></g></g><g class="djs-group"><g style="display: block;" data-element-id="SequenceFlow_0ts91hb" class="djs-element djs-connection"><g class="djs-visual"><path stroke="#000000" fill="none" style="stroke-width: 2; stroke-linejoin: round; marker-end: url(&quot;#markerSihwvw78q1nb&quot;);" d="m  216,180L282,180 "></path></g><polyline class="djs-hit" stroke="#ffffff" fill="none" style="stroke-opacity: 0; stroke-width: 15;" points="216,180 282,180 "></polyline><rect class="djs-outline" fill="none" style="" height="12" width="78" y="174" x="210"></rect></g></g><g class="djs-group"><g style="display: none;" transform="matrix(1,0,0,1,204,170)" data-element-id="SequenceFlow_0ts91hb_label" class="djs-element djs-shape"><g class="djs-visual"><text class=" djs-label" style="font-family: Arial,sans-serif; font-size: 11px;"><tspan y="0" x="45"></tspan></text></g><rect class="djs-hit" stroke="#ffffff" fill="none" style="stroke-opacity: 0; stroke-width: 15;" height="20" width="90" y="0" x="0"></rect><rect class="djs-outline" fill="none" style="" height="32" width="102" y="-6" x="-6"></rect></g></g><g class="djs-group"><g style="display: none;" transform="matrix(1,0,0,1,709.4317,607)" data-element-id="ExclusiveGateway_0ep8867_label" class="djs-element djs-shape"><g class="djs-visual"><text class=" djs-label" style="font-family: Arial,sans-serif; font-size: 11px;"><tspan y="0" x="45"></tspan></text></g><rect class="djs-hit" stroke="#ffffff" fill="none" style="stroke-opacity: 0; stroke-width: 15;" height="20" width="90" y="0" x="0"></rect><rect class="djs-outline" fill="none" style="" height="32" width="102" y="-6" x="-6"></rect></g></g><g class="djs-group"><g style="display: block;" data-element-id="SequenceFlow_06dosro" class="djs-element djs-connection"><g class="djs-visual"><path stroke="#000000" fill="none" style="stroke-width: 2; stroke-linejoin: round; marker-end: url(&quot;#markerSihwvw78q1nb&quot;);" d="m  678,582L729,582 "></path></g><polyline class="djs-hit" stroke="#ffffff" fill="none" style="stroke-opacity: 0; stroke-width: 15;" points="678,582 729,582 "></polyline><rect class="djs-outline" fill="none" style="" height="12" width="63" y="576" x="672"></rect></g></g><g class="djs-group"><g style="display: none;" transform="matrix(1,0,0,1,658.5,572)" data-element-id="SequenceFlow_06dosro_label" class="djs-element djs-shape"><g class="djs-visual"><text class=" djs-label" style="font-family: Arial,sans-serif; font-size: 11px;"><tspan y="0" x="45"></tspan></text></g><rect class="djs-hit" stroke="#ffffff" fill="none" style="stroke-opacity: 0; stroke-width: 15;" height="20" width="90" y="0" x="0"></rect><rect class="djs-outline" fill="none" style="" height="32" width="102" y="-6" x="-6"></rect></g></g><g class="djs-group"><g style="display: block;" data-element-id="SequenceFlow_0swj9db" class="djs-element djs-connection"><g class="djs-visual"><path stroke="#000000" fill="none" style="stroke-width: 2; stroke-linejoin: round; marker-end: url(&quot;#markerSihwvw78q1nb&quot;);" d="m  779,582L837,582 "></path></g><polyline class="djs-hit" stroke="#ffffff" fill="none" style="stroke-opacity: 0; stroke-width: 15;" points="779,582 837,582 "></polyline><rect class="djs-outline" fill="none" style="" height="12" width="70" y="576" x="773"></rect></g></g><g class="djs-group"><g style="display: none;" transform="matrix(1,0,0,1,763,572)" data-element-id="SequenceFlow_0swj9db_label" class="djs-element djs-shape"><g class="djs-visual"><text class=" djs-label" style="font-family: Arial,sans-serif; font-size: 11px;"><tspan y="0" x="45"></tspan></text></g><rect class="djs-hit" stroke="#ffffff" fill="none" style="stroke-opacity: 0; stroke-width: 15;" height="20" width="90" y="0" x="0"></rect><rect class="djs-outline" fill="none" style="" height="32" width="102" y="-6" x="-6"></rect></g></g><g class="djs-group"><g style="display: block;" data-element-id="SequenceFlow_0wh621i" class="djs-element djs-connection"><g class="djs-visual"><path stroke="#000000" fill="none" style="stroke-width: 2; stroke-linejoin: round; marker-end: url(&quot;#markerSihwvw78q1nb&quot;);" d="m  754,607L754,696 L837,696 "></path></g><polyline class="djs-hit" stroke="#ffffff" fill="none" style="stroke-opacity: 0; stroke-width: 15;" points="754,607 754,696 837,696 "></polyline><rect class="djs-outline" fill="none" style="" height="101" width="95" y="601" x="748"></rect></g></g><g class="djs-group"><g style="display: none;" transform="matrix(1,0,0,1,709,614)" data-element-id="SequenceFlow_0wh621i_label" class="djs-element djs-shape"><g class="djs-visual"><text class=" djs-label" style="font-family: Arial,sans-serif; font-size: 11px;"><tspan y="0" x="45"></tspan></text></g><rect class="djs-hit" stroke="#ffffff" fill="none" style="stroke-opacity: 0; stroke-width: 15;" height="20" width="90" y="0" x="0"></rect><rect class="djs-outline" fill="none" style="" height="32" width="102" y="-6" x="-6"></rect></g></g><g class="djs-group"><g style="display: none;" transform="matrix(1,0,0,1,996.4317,607)" data-element-id="ExclusiveGateway_0wh2sld_label" class="djs-element djs-shape"><g class="djs-visual"><text class=" djs-label" style="font-family: Arial,sans-serif; font-size: 11px;"><tspan y="0" x="45"></tspan></text></g><rect class="djs-hit" stroke="#ffffff" fill="none" style="stroke-opacity: 0; stroke-width: 15;" height="20" width="90" y="0" x="0"></rect><rect class="djs-outline" fill="none" style="" height="32" width="102" y="-6" x="-6"></rect></g></g><g class="djs-group"><g style="display: block;" data-element-id="SequenceFlow_0m4n4rv" class="djs-element djs-connection"><g class="djs-visual"><path stroke="#000000" fill="none" style="stroke-width: 2; stroke-linejoin: round; marker-end: url(&quot;#markerSihwvw78q1nb&quot;);" d="m  937,696L1041,696 L1041,607 "></path></g><polyline class="djs-hit" stroke="#ffffff" fill="none" style="stroke-opacity: 0; stroke-width: 15;" points="937,696 1041,696 1041,607 "></polyline><rect class="djs-outline" fill="none" style="" height="101" width="116" y="601" x="931"></rect></g></g><g class="djs-group"><g style="display: none;" transform="matrix(1,0,0,1,944,686)" data-element-id="SequenceFlow_0m4n4rv_label" class="djs-element djs-shape"><g class="djs-visual"><text class=" djs-label" style="font-family: Arial,sans-serif; font-size: 11px;"><tspan y="0" x="45"></tspan></text></g><rect class="djs-hit" stroke="#ffffff" fill="none" style="stroke-opacity: 0; stroke-width: 15;" height="20" width="90" y="0" x="0"></rect><rect class="djs-outline" fill="none" style="" height="32" width="102" y="-6" x="-6"></rect></g></g><g class="djs-group"><g style="display: block;" data-element-id="SequenceFlow_0wre1jc" class="djs-element djs-connection"><g class="djs-visual"><path stroke="#000000" fill="none" style="stroke-width: 2; stroke-linejoin: round; marker-end: url(&quot;#markerSihwvw78q1nb&quot;);" d="m  937,582L1016,582 "></path></g><polyline class="djs-hit" stroke="#ffffff" fill="none" style="stroke-opacity: 0; stroke-width: 15;" points="937,582 1016,582 "></polyline><rect class="djs-outline" fill="none" style="" height="12" width="91" y="576" x="931"></rect></g></g><g class="djs-group"><g style="display: none;" transform="matrix(1,0,0,1,931.5,572)" data-element-id="SequenceFlow_0wre1jc_label" class="djs-element djs-shape"><g class="djs-visual"><text class=" djs-label" style="font-family: Arial,sans-serif; font-size: 11px;"><tspan y="0" x="45"></tspan></text></g><rect class="djs-hit" stroke="#ffffff" fill="none" style="stroke-opacity: 0; stroke-width: 15;" height="20" width="90" y="0" x="0"></rect><rect class="djs-outline" fill="none" style="" height="32" width="102" y="-6" x="-6"></rect></g></g><g class="djs-group"><g style="display: block;" data-element-id="SequenceFlow_18ht5rb" class="djs-element djs-connection"><g class="djs-visual"><path stroke="#000000" fill="none" style="stroke-width: 2; stroke-linejoin: round; marker-end: url(&quot;#markerSihwvw78q1nb&quot;);" d="m  382,180L429,180 "></path></g><polyline class="djs-hit" stroke="#ffffff" fill="none" style="stroke-opacity: 0; stroke-width: 15;" points="382,180 429,180 "></polyline><rect class="djs-outline" fill="none" style="" height="12" width="59" y="174" x="376"></rect></g></g><g class="djs-group"><g style="display: none;" transform="matrix(1,0,0,1,360.5,170)" data-element-id="SequenceFlow_18ht5rb_label" class="djs-element djs-shape"><g class="djs-visual"><text class=" djs-label" style="font-family: Arial,sans-serif; font-size: 11px;"><tspan y="0" x="45"></tspan></text></g><rect class="djs-hit" stroke="#ffffff" fill="none" style="stroke-opacity: 0; stroke-width: 15;" height="20" width="90" y="0" x="0"></rect><rect class="djs-outline" fill="none" style="" height="32" width="102" y="-6" x="-6"></rect></g></g><g class="djs-group"><g style="display: block;" data-element-id="SequenceFlow_1snn5yc" class="djs-element djs-connection"><g class="djs-visual"><path stroke="#000000" fill="none" style="stroke-width: 2; stroke-linejoin: round; marker-end: url(&quot;#markerSihwvw78q1nb&quot;);" d="m  479,220L479,266 L332,266 L332,376 "></path></g><polyline class="djs-hit" stroke="#ffffff" fill="none" style="stroke-opacity: 0; stroke-width: 15;" points="479,220 479,266 332,266 332,376 "></polyline><rect class="djs-outline" fill="none" style="" height="168" width="159" y="214" x="326"></rect></g></g><g class="djs-group"><g style="display: none;" transform="matrix(1,0,0,1,361,288)" data-element-id="SequenceFlow_1snn5yc_label" class="djs-element djs-shape"><g class="djs-visual"><text class=" djs-label" style="font-family: Arial,sans-serif; font-size: 11px;"><tspan y="0" x="45"></tspan></text></g><rect class="djs-hit" stroke="#ffffff" fill="none" style="stroke-opacity: 0; stroke-width: 15;" height="20" width="90" y="0" x="0"></rect><rect class="djs-outline" fill="none" style="" height="32" width="102" y="-6" x="-6"></rect></g></g><g class="djs-group"><g style="display: block;" data-element-id="SequenceFlow_0dqcckm" class="djs-element djs-connection"><g class="djs-visual"><path stroke="#000000" fill="none" style="stroke-width: 2; stroke-linejoin: round; marker-end: url(&quot;#markerSihwvw78q1nb&quot;);" d="m  382,416L429,416 "></path></g><polyline class="djs-hit" stroke="#ffffff" fill="none" style="stroke-opacity: 0; stroke-width: 15;" points="382,416 429,416 "></polyline><rect class="djs-outline" fill="none" style="" height="12" width="59" y="410" x="376"></rect></g></g><g class="djs-group"><g style="display: none;" transform="matrix(1,0,0,1,360.5,406)" data-element-id="SequenceFlow_0dqcckm_label" class="djs-element djs-shape"><g class="djs-visual"><text class=" djs-label" style="font-family: Arial,sans-serif; font-size: 11px;"><tspan y="0" x="45"></tspan></text></g><rect class="djs-hit" stroke="#ffffff" fill="none" style="stroke-opacity: 0; stroke-width: 15;" height="20" width="90" y="0" x="0"></rect><rect class="djs-outline" fill="none" style="" height="32" width="102" y="-6" x="-6"></rect></g></g><g class="djs-group"><g style="display: block;" data-element-id="SequenceFlow_0d7cz8l" class="djs-element djs-connection"><g class="djs-visual"><path stroke="#000000" fill="none" style="stroke-width: 2; stroke-linejoin: round; marker-end: url(&quot;#markerSihwvw78q1nb&quot;);" d="m  529,416L578,416 "></path></g><polyline class="djs-hit" stroke="#ffffff" fill="none" style="stroke-opacity: 0; stroke-width: 15;" points="529,416 578,416 "></polyline><rect class="djs-outline" fill="none" style="" height="12" width="61" y="410" x="523"></rect></g></g><g class="djs-group"><g style="display: none;" transform="matrix(1,0,0,1,508.5,406)" data-element-id="SequenceFlow_0d7cz8l_label" class="djs-element djs-shape"><g class="djs-visual"><text class=" djs-label" style="font-family: Arial,sans-serif; font-size: 11px;"><tspan y="0" x="45"></tspan></text></g><rect class="djs-hit" stroke="#ffffff" fill="none" style="stroke-opacity: 0; stroke-width: 15;" height="20" width="90" y="0" x="0"></rect><rect class="djs-outline" fill="none" style="" height="32" width="102" y="-6" x="-6"></rect></g></g><g class="djs-group"><g style="display: block;" data-element-id="SequenceFlow_1tyixrv" class="djs-element djs-connection"><g class="djs-visual"><path stroke="#000000" fill="none" style="stroke-width: 2; stroke-linejoin: round; marker-end: url(&quot;#markerSihwvw78q1nb&quot;);" d="m  678,416L753,416 "></path></g><polyline class="djs-hit" stroke="#ffffff" fill="none" style="stroke-opacity: 0; stroke-width: 15;" points="678,416 753,416 "></polyline><rect class="djs-outline" fill="none" style="" height="12" width="87" y="410" x="672"></rect></g></g><g class="djs-group"><g style="display: none;" transform="matrix(1,0,0,1,670.5,406)" data-element-id="SequenceFlow_1tyixrv_label" class="djs-element djs-shape"><g class="djs-visual"><text class=" djs-label" style="font-family: Arial,sans-serif; font-size: 11px;"><tspan y="0" x="45"></tspan></text></g><rect class="djs-hit" stroke="#ffffff" fill="none" style="stroke-opacity: 0; stroke-width: 15;" height="20" width="90" y="0" x="0"></rect><rect class="djs-outline" fill="none" style="" height="32" width="102" y="-6" x="-6"></rect></g></g><g class="djs-group"><g style="display: block;" data-element-id="SequenceFlow_0o653yg" class="djs-element djs-connection"><g class="djs-visual"><path stroke="#000000" fill="none" style="stroke-width: 2; stroke-linejoin: round; marker-end: url(&quot;#markerSihwvw78q1nb&quot;);" d="m  803,456L803,481 L628,481 L628,542 "></path></g><polyline class="djs-hit" stroke="#ffffff" fill="none" style="stroke-opacity: 0; stroke-width: 15;" points="803,456 803,481 628,481 628,542 "></polyline><rect class="djs-outline" fill="none" style="" height="98" width="187" y="450" x="622"></rect></g></g><g class="djs-group"><g style="display: none;" transform="matrix(1,0,0,1,671,489)" data-element-id="SequenceFlow_0o653yg_label" class="djs-element djs-shape"><g class="djs-visual"><text class=" djs-label" style="font-family: Arial,sans-serif; font-size: 11px;"><tspan y="0" x="45"></tspan></text></g><rect class="djs-hit" stroke="#ffffff" fill="none" style="stroke-opacity: 0; stroke-width: 15;" height="20" width="90" y="0" x="0"></rect><rect class="djs-outline" fill="none" style="" height="32" width="102" y="-6" x="-6"></rect></g></g><g class="djs-group"><g style="display: none;" transform="matrix(1,0,0,1,1227.4317,600)" data-element-id="EndEvent_19z0ira_label" class="djs-element djs-shape"><g class="djs-visual"><text class=" djs-label" style="font-family: Arial,sans-serif; font-size: 11px;"><tspan y="0" x="45"></tspan></text></g><rect class="djs-hit" stroke="#ffffff" fill="none" style="stroke-opacity: 0; stroke-width: 15;" height="20" width="90" y="0" x="0"></rect><rect class="djs-outline" fill="none" style="" height="32" width="102" y="-6" x="-6"></rect></g></g><g class="djs-group"><g style="display: block;" data-element-id="SequenceFlow_1bbavfp" class="djs-element djs-connection"><g class="djs-visual"><path stroke="#000000" fill="none" style="stroke-width: 2; stroke-linejoin: round; marker-end: url(&quot;#markerSihwvw78q1nb&quot;);" d="m  1203,582L1254,582 "></path></g><polyline class="djs-hit" stroke="#ffffff" fill="none" style="stroke-opacity: 0; stroke-width: 15;" points="1203,582 1254,582 "></polyline><rect class="djs-outline" fill="none" style="" height="12" width="63" y="576" x="1197"></rect></g></g><g class="djs-group"><g style="display: none;" transform="matrix(1,0,0,1,1183.5,572)" data-element-id="SequenceFlow_1bbavfp_label" class="djs-element djs-shape"><g class="djs-visual"><text class=" djs-label" style="font-family: Arial,sans-serif; font-size: 11px;"><tspan y="0" x="45"></tspan></text></g><rect class="djs-hit" stroke="#ffffff" fill="none" style="stroke-opacity: 0; stroke-width: 15;" height="20" width="90" y="0" x="0"></rect><rect class="djs-outline" fill="none" style="" height="32" width="102" y="-6" x="-6"></rect></g></g><g class="djs-group"><g style="display: block;" data-element-id="SequenceFlow_1ya6668" class="djs-element djs-connection"><g class="djs-visual"><path stroke="#000000" fill="none" style="stroke-width: 2; stroke-linejoin: round; marker-end: url(&quot;#markerSihwvw78q1nb&quot;);" d="m  1066,582L1103,582 "></path></g><polyline class="djs-hit" stroke="#ffffff" fill="none" style="stroke-opacity: 0; stroke-width: 15;" points="1066,582 1103,582 "></polyline><rect class="djs-outline" fill="none" style="" height="12" width="49" y="576" x="1060"></rect></g></g><g class="djs-group"><g style="display: none;" transform="matrix(1,0,0,1,1039.5,572)" data-element-id="SequenceFlow_1ya6668_label" class="djs-element djs-shape"><g class="djs-visual"><text class=" djs-label" style="font-family: Arial,sans-serif; font-size: 11px;"><tspan y="0" x="45"></tspan></text></g><rect class="djs-hit" stroke="#ffffff" fill="none" style="stroke-opacity: 0; stroke-width: 15;" height="20" width="90" y="0" x="0"></rect><rect class="djs-outline" fill="none" style="" height="32" width="102" y="-6" x="-6"></rect></g></g></g></g></svg>