<?xml version="1.0" encoding="utf-8"?>
<!-- created with bpmn-js / http://bpmn.io -->
<!DOCTYPE svg PUBLIC "-//W3C//DTD SVG 1.1//EN" "http://www.w3.org/Graphics/SVG/1.1/DTD/svg11.dtd">
<svg xmlns="http://www.w3.org/2000/svg" xmlns:xlink="http://www.w3.org/1999/xlink" width="972" height="448" viewBox="117 -21 972 448" version="1.1"><defs><marker viewBox="0 0 20 20" markerWidth="10" markerHeight="10" orient="auto" refX="11" refY="10" id="markerSii18646m9"><path d="M 1 5 L 11 10 L 1 15 Z" style="stroke-width: 1; stroke-linecap: round; stroke-dasharray: 10000, 1;" fill="#000000"/></marker><marker viewBox="0 0 20 20" markerWidth="20" markerHeight="20" orient="auto" refX="6" refY="6" id="markerSii18646mb"><circle cx="6" cy="6" r="3.5" style="stroke-width: 1; stroke-linecap: round; stroke-dasharray: 10000, 1;" fill="#ffffff" stroke="#000000"/></marker><marker viewBox="0 0 20 20" markerWidth="20" markerHeight="20" orient="auto" refX="8.5" refY="5" id="markerSii18646md"><path d="m 1 5 l 0 -3 l 7 3 l -7 3 z" style="stroke-width: 1; stroke-linecap: butt; stroke-dasharray: 10000, 1;" fill="#ffffff" stroke="#000000"/></marker><marker viewBox="0 0 20 20" markerWidth="10" markerHeight="10" orient="auto" refX="11" refY="10" id="markerSii18646mf"><path d="M 1 5 L 11 10 L 1 15" style="stroke-width: 1; stroke-linecap: round; stroke-dasharray: 10000, 1;" fill="#ffffff" stroke="#000000"/></marker><marker viewBox="0 0 20 20" markerWidth="10" markerHeight="10" orient="auto" refX="-1" refY="10" id="markerSii18646mh"><path d="M 0 10 L 8 6 L 16 10 L 8 14 Z" style="stroke-width: 1; stroke-linecap: round; stroke-dasharray: 10000, 1;" fill="#ffffff" stroke="#000000"/></marker><marker viewBox="0 0 20 20" markerWidth="10" markerHeight="10" orient="auto" refX="-5" refY="10" id="markerSii18646mj"><path d="M 1 4 L 5 16" style="stroke-width: 1; stroke-linecap: round; stroke-dasharray: 10000, 1;" fill="#000000" stroke="#000000"/></marker></defs><g xmlns="http://www.w3.org/2000/svg" class="djs-group"><g style="display: block;" transform="matrix(1,0,0,1,123,-15)" data-element-id="Participant_0nuhr2g" class="djs-element djs-shape"><g class="djs-visual"><rect fill="#ffffff" stroke="#000000" style="stroke-width: 2;" ry="0" rx="0" height="436" width="960" y="0" x="0"></rect><polyline stroke="#000000" fill="none" style="stroke-width: 2;" points="30,0 30,436 "></polyline><text transform="matrix(0,-1,1,0,0,436)" class=" djs-label" style="font-family: Arial,sans-serif; font-size: 12px;"><tspan y="18.5" x="162.5">Usuario Autenticado</tspan></text></g><rect class="djs-hit" stroke="#ffffff" fill="none" style="stroke-opacity: 0; stroke-width: 15;" height="436" width="960" y="0" x="0"></rect><rect class="djs-outline" fill="none" style="" height="448" width="972" y="-6" x="-6"></rect></g><g class="djs-children"><g class="djs-group"><g style="display: block;" transform="matrix(1,0,0,1,153,-15)" data-element-id="Lane_087hkyk" class="djs-element djs-shape hover"><g class="djs-visual"><rect fill="none" stroke="#000000" style="stroke-width: 2;" ry="0" rx="0" height="316" width="930" y="0" x="0"></rect><text transform="matrix(0,-1,1,0,0,316)" class=" djs-label" style="font-family: Arial,sans-serif; font-size: 12px;"><tspan y="18.5" x="111">Usuario Almacen</tspan></text></g><rect class="djs-hit" stroke="#ffffff" fill="none" style="stroke-opacity: 0; stroke-width: 15;" height="316" width="930" y="0" x="0"></rect><rect class="djs-outline" fill="none" style="" height="328" width="942" y="-6" x="-6"></rect></g></g><g class="djs-group"><g style="display: block;" transform="matrix(1,0,0,1,153,301)" data-element-id="Lane_0y852r8" class="djs-element djs-shape"><g class="djs-visual"><rect fill="none" stroke="#000000" style="stroke-width: 2;" ry="0" rx="0" height="120" width="930" y="0" x="0"></rect><text transform="matrix(0,-1,1,0,0,120)" class=" djs-label" style="font-family: Arial,sans-serif; font-size: 12px;"><tspan y="18.5" x="19.5">Usuario Admin</tspan></text></g><rect class="djs-hit" stroke="#ffffff" fill="none" style="stroke-opacity: 0; stroke-width: 15;" height="120" width="930" y="0" x="0"></rect><rect class="djs-outline" fill="none" style="" height="132" width="942" y="-6" x="-6"></rect></g></g><g class="djs-group"><g style="display: block;" transform="matrix(1,0,0,1,224,127)" data-element-id="StartEvent_1" class="djs-element djs-shape"><g class="djs-visual"><circle fill="#ffffff" stroke="#000000" style="stroke-width: 2;" r="18" cy="18" cx="18"></circle></g><rect class="djs-hit" stroke="#ffffff" fill="none" style="stroke-opacity: 0; stroke-width: 15;" height="36" width="36" y="0" x="0"></rect><rect class="djs-outline" fill="none" style="" height="48" width="48" y="-6" x="-6"></rect></g></g><g class="djs-group"><g style="display: block;" transform="matrix(1,0,0,1,318,105)" data-element-id="Task_0awq1ru" class="djs-element djs-shape"><g class="djs-visual"><rect fill="#ffffff" stroke="#000000" style="stroke-width: 2;" ry="10" rx="10" height="80" width="100" y="0" x="0"></rect><text class=" djs-label" style="font-family: Arial,sans-serif; font-size: 12px;"><tspan y="29.5" x="29">solicitar </tspan><tspan y="43.5" x="10">agregar nuevo </tspan><tspan y="57.5" x="26">producto </tspan></text></g><rect class="djs-hit" stroke="#ffffff" fill="none" style="stroke-opacity: 0; stroke-width: 15;" height="80" width="100" y="0" x="0"></rect><rect class="djs-outline" fill="none" style="" height="92" width="112" y="-6" x="-6"></rect></g></g><g class="djs-group"><g style="display: block;" transform="matrix(1,0,0,1,318,328)" data-element-id="Task_1vyq5pv" class="djs-element djs-shape"><g class="djs-visual"><rect fill="#ffffff" stroke="#000000" style="stroke-width: 2;" ry="10" rx="10" height="80" width="100" y="0" x="0"></rect><text class=" djs-label" style="font-family: Arial,sans-serif; font-size: 12px;"><tspan y="36.5" x="23">procecsar </tspan><tspan y="50.5" x="27.5">solicitud </tspan></text></g><rect class="djs-hit" stroke="#ffffff" fill="none" style="stroke-opacity: 0; stroke-width: 15;" height="80" width="100" y="0" x="0"></rect><rect class="djs-outline" fill="none" style="" height="92" width="112" y="-6" x="-6"></rect></g></g><g class="djs-group"><g style="display: block;" transform="matrix(1,0,0,1,241,343)" data-element-id="DataObjectReference_0ttfreu" class="djs-element djs-shape"><g class="djs-visual"><path stroke="#000000" fill="#ffffff" style="stroke-width: 2;" d="m 0,0 28.23529411764706,0 7.058823529411765,8.196721311475411 0,40.98360655737705 -35.294117647058826,0 0,-49.18032786885246 28.23529411764706,0 0,8.196721311475411 7.058823529411765,0"></path></g><rect class="djs-hit" stroke="#ffffff" fill="none" style="stroke-opacity: 0; stroke-width: 15;" height="50" width="36" y="0" x="0"></rect><rect class="djs-outline" fill="none" style="" height="62" width="48" y="-6" x="-6"></rect></g></g><g class="djs-group"><g style="display: block;" transform="matrix(1,0,0,1,473,328)" data-element-id="Task_0oo6410" class="djs-element djs-shape"><g class="djs-visual"><rect fill="#ffffff" stroke="#000000" style="stroke-width: 2;" ry="10" rx="10" height="80" width="100" y="0" x="0"></rect><text class=" djs-label" style="font-family: Arial,sans-serif; font-size: 12px;"><tspan y="36.5" x="33">enviar </tspan><tspan y="50.5" x="23">respuesta </tspan></text></g><rect class="djs-hit" stroke="#ffffff" fill="none" style="stroke-opacity: 0; stroke-width: 15;" height="80" width="100" y="0" x="0"></rect><rect class="djs-outline" fill="none" style="" height="92" width="112" y="-6" x="-6"></rect></g></g><g class="djs-group"><g style="display: block;" transform="matrix(1,0,0,1,473,105)" data-element-id="Task_0pndqgi" class="djs-element djs-shape"><g class="djs-visual"><rect fill="#ffffff" stroke="#000000" style="stroke-width: 2;" ry="10" rx="10" height="80" width="100" y="0" x="0"></rect><text class=" djs-label" style="font-family: Arial,sans-serif; font-size: 12px;"><tspan y="36.5" x="33">recibe </tspan><tspan y="50.5" x="19">notificacion </tspan></text></g><rect class="djs-hit" stroke="#ffffff" fill="none" style="stroke-opacity: 0; stroke-width: 15;" height="80" width="100" y="0" x="0"></rect><rect class="djs-outline" fill="none" style="" height="92" width="112" y="-6" x="-6"></rect></g></g><g class="djs-group"><g style="display: block;" transform="matrix(1,0,0,1,847,120)" data-element-id="ExclusiveGateway_18052zh" class="djs-element djs-shape"><g class="djs-visual"><polygon fill="#ffffff" stroke="#000000" style="stroke-width: 2;" points="25,0,50,25,25,50,0,25"></polygon><path stroke="#000000" fill="#000000" style="stroke-width: 1;" d="m 16,15 7.42857142857143,9.714285714285715 -7.42857142857143,9.714285714285715 3.428571428571429,0 5.714285714285715,-7.464228571428572 5.714285714285715,7.464228571428572 3.428571428571429,0 -7.42857142857143,-9.714285714285715 7.42857142857143,-9.714285714285715 -3.428571428571429,0 -5.714285714285715,7.464228571428572 -5.714285714285715,-7.464228571428572 -3.428571428571429,0 z"></path></g><rect class="djs-hit" stroke="#ffffff" fill="none" style="stroke-opacity: 0; stroke-width: 15;" height="50" width="50" y="0" x="0"></rect><rect class="djs-outline" fill="none" style="" height="62" width="62" y="-6" x="-6"></rect></g></g><g class="djs-group"><g style="display: block;" transform="matrix(1,0,0,1,614,120)" data-element-id="ExclusiveGateway_10ou07i" class="djs-element djs-shape"><g class="djs-visual"><polygon fill="#ffffff" stroke="#000000" style="stroke-width: 2;" points="25,0,50,25,25,50,0,25"></polygon><path stroke="#000000" fill="#000000" style="stroke-width: 1;" d="m 16,15 7.42857142857143,9.714285714285715 -7.42857142857143,9.714285714285715 3.428571428571429,0 5.714285714285715,-7.464228571428572 5.714285714285715,7.464228571428572 3.428571428571429,0 -7.42857142857143,-9.714285714285715 7.42857142857143,-9.714285714285715 -3.428571428571429,0 -5.714285714285715,7.464228571428572 -5.714285714285715,-7.464228571428572 -3.428571428571429,0 z"></path></g><rect class="djs-hit" stroke="#ffffff" fill="none" style="stroke-opacity: 0; stroke-width: 15;" height="50" width="50" y="0" x="0"></rect><rect class="djs-outline" fill="none" style="" height="62" width="62" y="-6" x="-6"></rect></g></g><g class="djs-group"><g style="display: block;" transform="matrix(1,0,0,1,709,-4)" data-element-id="Task_1a6z64w" class="djs-element djs-shape"><g class="djs-visual"><rect fill="#ffffff" stroke="#000000" style="stroke-width: 2;" ry="10" rx="10" height="80" width="100" y="0" x="0"></rect><text class=" djs-label" style="font-family: Arial,sans-serif; font-size: 12px;"><tspan y="29.5" x="26">procesar </tspan><tspan y="43.5" x="25.5">solicutud </tspan><tspan y="57.5" x="24.5">aceptada </tspan></text></g><rect class="djs-hit" stroke="#ffffff" fill="none" style="stroke-opacity: 0; stroke-width: 15;" height="80" width="100" y="0" x="0"></rect><rect class="djs-outline" fill="none" style="" height="92" width="112" y="-6" x="-6"></rect></g></g><g class="djs-group"><g style="display: block;" transform="matrix(1,0,0,1,980,18)" data-element-id="EndEvent_0c4o6lb" class="djs-element djs-shape"><g class="djs-visual"><circle fill="#ffffff" stroke="#000000" style="stroke-width: 4;" r="18" cy="18" cx="18"></circle></g><rect class="djs-hit" stroke="#ffffff" fill="none" style="stroke-opacity: 0; stroke-width: 15;" height="36" width="36" y="0" x="0"></rect><rect class="djs-outline" fill="none" style="" height="48" width="48" y="-6" x="-6"></rect></g></g><g class="djs-group"><g style="display: block;" transform="matrix(1,0,0,1,729,105)" data-element-id="Task_05p6nh1" class="djs-element djs-shape"><g class="djs-visual"><rect fill="#ffffff" stroke="#000000" style="stroke-width: 2;" ry="10" rx="10" height="80" width="100" y="0" x="0"></rect><text class=" djs-label" style="font-family: Arial,sans-serif; font-size: 12px;"><tspan y="36.5" x="32.5">apelar </tspan><tspan y="50.5" x="24">solicitud? </tspan></text></g><rect class="djs-hit" stroke="#ffffff" fill="none" style="stroke-opacity: 0; stroke-width: 15;" height="80" width="100" y="0" x="0"></rect><rect class="djs-outline" fill="none" style="" height="92" width="112" y="-6" x="-6"></rect></g></g><g class="djs-group"><g style="display: block;" transform="matrix(1,0,0,1,948,105)" data-element-id="SubProcess_02ge8px" class="djs-element djs-shape"><g class="djs-visual"><rect fill="#ffffff" stroke="#000000" style="stroke-width: 2;" ry="10" rx="10" height="80" width="100" y="0" x="0"></rect><text class=" djs-label" style="font-family: Arial,sans-serif; font-size: 12px;"><tspan y="43.5" x="8.5">apelar solicitud</tspan></text><rect transform="matrix(1,0,0,1,42.5,60)" fill="#ffffff" stroke="#000000" style="stroke-width: 1;" ry="0" rx="0" height="14" width="14" y="0" x="0"></rect><path stroke="#000000" fill="none" style="stroke-width: 2;" d="m42.5,60 m 7,2 l 0,10 m -5,-5 l 10,0"></path></g><rect class="djs-hit" stroke="#ffffff" fill="none" style="stroke-opacity: 0; stroke-width: 15;" height="80" width="100" y="0" x="0"></rect><rect class="djs-outline" fill="none" style="" height="92" width="112" y="-6" x="-6"></rect></g></g><g class="djs-group"><g style="display: none;" transform="matrix(1,0,0,1,197,163)" data-element-id="StartEvent_1_label" class="djs-element djs-shape"><g class="djs-visual"><text class=" djs-label" style="font-family: Arial,sans-serif; font-size: 11px;"><tspan y="0" x="45"></tspan></text></g><rect class="djs-hit" stroke="#ffffff" fill="none" style="stroke-opacity: 0; stroke-width: 15;" height="20" width="90" y="0" x="0"></rect><rect class="djs-outline" fill="none" style="" height="32" width="102" y="-6" x="-6"></rect></g></g><g class="djs-group"><g style="display: block;" data-element-id="SequenceFlow_1xnxexn" class="djs-element djs-connection"><g class="djs-visual"><path stroke="#000000" fill="none" style="stroke-width: 2; stroke-linejoin: round; marker-end: url(&quot;#markerSii18646m9&quot;);" d="m  260,145L318,145 "></path></g><polyline class="djs-hit" stroke="#ffffff" fill="none" style="stroke-opacity: 0; stroke-width: 15;" points="260,145 318,145 "></polyline><rect class="djs-outline" fill="none" style="" height="12" width="70" y="139" x="254"></rect></g></g><g class="djs-group"><g style="display: none;" transform="matrix(1,0,0,1,244,135)" data-element-id="SequenceFlow_1xnxexn_label" class="djs-element djs-shape"><g class="djs-visual"><text class=" djs-label" style="font-family: Arial,sans-serif; font-size: 11px;"><tspan y="0" x="45"></tspan></text></g><rect class="djs-hit" stroke="#ffffff" fill="none" style="stroke-opacity: 0; stroke-width: 15;" height="20" width="90" y="0" x="0"></rect><rect class="djs-outline" fill="none" style="" height="32" width="102" y="-6" x="-6"></rect></g></g><g class="djs-group"><g style="display: block;" data-element-id="SequenceFlow_160dczs" class="djs-element djs-connection"><g class="djs-visual"><path stroke="#000000" fill="none" style="stroke-width: 2; stroke-linejoin: round; marker-end: url(&quot;#markerSii18646m9&quot;);" d="m  368,185L368,328 "></path></g><polyline class="djs-hit" stroke="#ffffff" fill="none" style="stroke-opacity: 0; stroke-width: 15;" points="368,185 368,328 "></polyline><rect class="djs-outline" fill="none" style="" height="155" width="12" y="179" x="362"></rect></g></g><g class="djs-group"><g style="display: none;" transform="matrix(1,0,0,1,323,246.5)" data-element-id="SequenceFlow_160dczs_label" class="djs-element djs-shape"><g class="djs-visual"><text class=" djs-label" style="font-family: Arial,sans-serif; font-size: 11px;"><tspan y="0" x="45"></tspan></text></g><rect class="djs-hit" stroke="#ffffff" fill="none" style="stroke-opacity: 0; stroke-width: 15;" height="20" width="90" y="0" x="0"></rect><rect class="djs-outline" fill="none" style="" height="32" width="102" y="-6" x="-6"></rect></g></g><g class="djs-group"><g style="display: block;" data-element-id="DataInputAssociation_1gue22c" class="djs-element djs-connection"><g class="djs-visual"><polyline stroke="#000000" fill="none" style="stroke-width: 2; stroke-dasharray: 1, 6; stroke-linecap: round; stroke-linejoin: round; marker-end: url(&quot;#markerSii18646mf&quot;);" points="277,368 318,368 "></polyline></g><polyline class="djs-hit" stroke="#ffffff" fill="none" style="stroke-opacity: 0; stroke-width: 15;" points="277,368 318,368 "></polyline><rect class="djs-outline" fill="none" style="" height="12" width="53" y="362" x="271"></rect></g></g><g class="djs-group"><g style="display: block;" transform="matrix(1,0,0,1,214,393)" data-element-id="DataObjectReference_0ttfreu_label" class="djs-element djs-shape"><g class="djs-visual"><text class=" djs-label" style="font-family: Arial,sans-serif; font-size: 11px;"><tspan y="13" x="23.5">estandar</tspan></text></g><rect class="djs-hit" stroke="#ffffff" fill="none" style="stroke-opacity: 0; stroke-width: 15;" height="20" width="90" y="0" x="0"></rect><rect class="djs-outline" fill="none" style="" height="32" width="102" y="-6" x="-6"></rect></g></g><g class="djs-group"><g style="display: block;" data-element-id="SequenceFlow_1t33saz" class="djs-element djs-connection"><g class="djs-visual"><path stroke="#000000" fill="none" style="stroke-width: 2; stroke-linejoin: round; marker-end: url(&quot;#markerSii18646m9&quot;);" d="m  418,368L473,368 "></path></g><polyline class="djs-hit" stroke="#ffffff" fill="none" style="stroke-opacity: 0; stroke-width: 15;" points="418,368 473,368 "></polyline><rect class="djs-outline" fill="none" style="" height="12" width="67" y="362" x="412"></rect></g></g><g class="djs-group"><g style="display: none;" transform="matrix(1,0,0,1,400.5,358)" data-element-id="SequenceFlow_1t33saz_label" class="djs-element djs-shape"><g class="djs-visual"><text class=" djs-label" style="font-family: Arial,sans-serif; font-size: 11px;"><tspan y="0" x="45"></tspan></text></g><rect class="djs-hit" stroke="#ffffff" fill="none" style="stroke-opacity: 0; stroke-width: 15;" height="20" width="90" y="0" x="0"></rect><rect class="djs-outline" fill="none" style="" height="32" width="102" y="-6" x="-6"></rect></g></g><g class="djs-group"><g style="display: block;" data-element-id="SequenceFlow_15uok76" class="djs-element djs-connection"><g class="djs-visual"><path stroke="#000000" fill="none" style="stroke-width: 2; stroke-linejoin: round; marker-end: url(&quot;#markerSii18646m9&quot;);" d="m  523,328L523,185 "></path></g><polyline class="djs-hit" stroke="#ffffff" fill="none" style="stroke-opacity: 0; stroke-width: 15;" points="523,328 523,185 "></polyline><rect class="djs-outline" fill="none" style="" height="155" width="12" y="179" x="517"></rect></g></g><g class="djs-group"><g style="display: none;" transform="matrix(1,0,0,1,478,246.5)" data-element-id="SequenceFlow_15uok76_label" class="djs-element djs-shape"><g class="djs-visual"><text class=" djs-label" style="font-family: Arial,sans-serif; font-size: 11px;"><tspan y="0" x="45"></tspan></text></g><rect class="djs-hit" stroke="#ffffff" fill="none" style="stroke-opacity: 0; stroke-width: 15;" height="20" width="90" y="0" x="0"></rect><rect class="djs-outline" fill="none" style="" height="32" width="102" y="-6" x="-6"></rect></g></g><g class="djs-group"><g style="display: block;" data-element-id="SequenceFlow_0lbc7ll" class="djs-element djs-connection"><g class="djs-visual"><path stroke="#000000" fill="none" style="stroke-width: 2; stroke-linejoin: round; marker-end: url(&quot;#markerSii18646m9&quot;); marker-start: url(&quot;#markerSii18646mj&quot;);" d="m  897,145L948,145 "></path></g><polyline class="djs-hit" stroke="#ffffff" fill="none" style="stroke-opacity: 0; stroke-width: 15;" points="897,145 948,145 "></polyline><rect class="djs-outline" fill="none" style="" height="12" width="63" y="139" x="891"></rect></g></g><g class="djs-group"><g style="display: none;" transform="matrix(1,0,0,1,814.5,135)" data-element-id="SequenceFlow_0lbc7ll_label" class="djs-element djs-shape"><g class="djs-visual"><text class=" djs-label" style="font-family: Arial,sans-serif; font-size: 11px;"><tspan y="0" x="45"></tspan></text></g><rect class="djs-hit" stroke="#ffffff" fill="none" style="stroke-opacity: 0; stroke-width: 15;" height="20" width="90" y="0" x="0"></rect><rect class="djs-outline" fill="none" style="" height="32" width="102" y="-6" x="-6"></rect></g></g><g class="djs-group"><g style="display: block;" data-element-id="SequenceFlow_06dpc7f" class="djs-element djs-connection"><g class="djs-visual"><path stroke="#000000" fill="none" style="stroke-width: 2; stroke-linejoin: round; marker-end: url(&quot;#markerSii18646m9&quot;);" d="m  573,145L614,145 "></path></g><polyline class="djs-hit" stroke="#ffffff" fill="none" style="stroke-opacity: 0; stroke-width: 15;" points="573,145 614,145 "></polyline><rect class="djs-outline" fill="none" style="" height="12" width="53" y="139" x="567"></rect></g></g><g class="djs-group"><g style="display: none;" transform="matrix(1,0,0,1,553,135)" data-element-id="SequenceFlow_06dpc7f_label" class="djs-element djs-shape"><g class="djs-visual"><text class=" djs-label" style="font-family: Arial,sans-serif; font-size: 11px;"><tspan y="0" x="45"></tspan></text></g><rect class="djs-hit" stroke="#ffffff" fill="none" style="stroke-opacity: 0; stroke-width: 15;" height="20" width="90" y="0" x="0"></rect><rect class="djs-outline" fill="none" style="" height="32" width="102" y="-6" x="-6"></rect></g></g><g class="djs-group"><g style="display: block;" data-element-id="SequenceFlow_1rk1fks" class="djs-element djs-connection selected"><g class="djs-visual"><path stroke="#000000" fill="none" style="stroke-width: 2; stroke-linejoin: round; marker-end: url(&quot;#markerSii18646m9&quot;); marker-start: url(&quot;#markerSii18646mj&quot;);" d="m  664,145L729,145 "></path></g><polyline class="djs-hit" stroke="#ffffff" fill="none" style="stroke-opacity: 0; stroke-width: 15;" points="664,145 729,145 "></polyline><rect class="djs-outline" fill="none" style="" height="12" width="77" y="139" x="658"></rect></g></g><g class="djs-group"><g style="display: none;" transform="matrix(1,0,0,1,634.5,135)" data-element-id="SequenceFlow_1rk1fks_label" class="djs-element djs-shape"><g class="djs-visual"><text class=" djs-label" style="font-family: Arial,sans-serif; font-size: 11px;"><tspan y="0" x="45"></tspan></text></g><rect class="djs-hit" stroke="#ffffff" fill="none" style="stroke-opacity: 0; stroke-width: 15;" height="20" width="90" y="0" x="0"></rect><rect class="djs-outline" fill="none" style="" height="32" width="102" y="-6" x="-6"></rect></g></g><g class="djs-group"><g style="display: none;" transform="matrix(1,0,0,1,827,170)" data-element-id="ExclusiveGateway_18052zh_label" class="djs-element djs-shape"><g class="djs-visual"><text class=" djs-label" style="font-family: Arial,sans-serif; font-size: 11px;"><tspan y="0" x="45"></tspan></text></g><rect class="djs-hit" stroke="#ffffff" fill="none" style="stroke-opacity: 0; stroke-width: 15;" height="20" width="90" y="0" x="0"></rect><rect class="djs-outline" fill="none" style="" height="32" width="102" y="-6" x="-6"></rect></g></g><g class="djs-group"><g style="display: block;" transform="matrix(1,0,0,1,594,170)" data-element-id="ExclusiveGateway_10ou07i_label" class="djs-element djs-shape"><g class="djs-visual"><text class=" djs-label" style="font-family: Arial,sans-serif; font-size: 11px;"><tspan y="13" x="25.5">solicitud </tspan><tspan y="26" x="19.5">aceptada? </tspan></text></g><rect class="djs-hit" stroke="#ffffff" fill="none" style="stroke-opacity: 0; stroke-width: 15;" height="20" width="90" y="0" x="0"></rect><rect class="djs-outline" fill="none" style="" height="32" width="102" y="-6" x="-6"></rect></g></g><g class="djs-group"><g style="display: block;" data-element-id="SequenceFlow_1uspfr9" class="djs-element djs-connection"><g class="djs-visual"><path stroke="#000000" fill="none" style="stroke-width: 2; stroke-linejoin: round; marker-end: url(&quot;#markerSii18646m9&quot;);" d="m  829,145L847,145 "></path></g><polyline class="djs-hit" stroke="#ffffff" fill="none" style="stroke-opacity: 0; stroke-width: 15;" points="829,145 847,145 "></polyline><rect class="djs-outline" fill="none" style="" height="12" width="30" y="139" x="823"></rect></g></g><g class="djs-group"><g style="display: none;" transform="matrix(1,0,0,1,783,135)" data-element-id="SequenceFlow_1uspfr9_label" class="djs-element djs-shape"><g class="djs-visual"><text class=" djs-label" style="font-family: Arial,sans-serif; font-size: 11px;"><tspan y="0" x="45"></tspan></text></g><rect class="djs-hit" stroke="#ffffff" fill="none" style="stroke-opacity: 0; stroke-width: 15;" height="20" width="90" y="0" x="0"></rect><rect class="djs-outline" fill="none" style="" height="32" width="102" y="-6" x="-6"></rect></g></g><g class="djs-group"><g style="display: block;" data-element-id="SequenceFlow_0e5akrj" class="djs-element djs-connection"><g class="djs-visual"><path stroke="#000000" fill="none" style="stroke-width: 2; stroke-linejoin: round; marker-end: url(&quot;#markerSii18646m9&quot;);" d="m  639,120L639,36 L709,36 "></path></g><polyline class="djs-hit" stroke="#ffffff" fill="none" style="stroke-opacity: 0; stroke-width: 15;" points="639,120 639,36 709,36 "></polyline><rect class="djs-outline" fill="none" style="" height="96" width="82" y="30" x="633"></rect></g></g><g class="djs-group"><g style="display: none;" transform="matrix(1,0,0,1,953,54)" data-element-id="EndEvent_0c4o6lb_label" class="djs-element djs-shape"><g class="djs-visual"><text class=" djs-label" style="font-family: Arial,sans-serif; font-size: 11px;"><tspan y="0" x="45"></tspan></text></g><rect class="djs-hit" stroke="#ffffff" fill="none" style="stroke-opacity: 0; stroke-width: 15;" height="20" width="90" y="0" x="0"></rect><rect class="djs-outline" fill="none" style="" height="32" width="102" y="-6" x="-6"></rect></g></g><g class="djs-group"><g style="display: block;" data-element-id="SequenceFlow_1qcpasj" class="djs-element djs-connection"><g class="djs-visual"><path stroke="#000000" fill="none" style="stroke-width: 2; stroke-linejoin: round; marker-end: url(&quot;#markerSii18646m9&quot;);" d="m  809,36L980,36 "></path></g><polyline class="djs-hit" stroke="#ffffff" fill="none" style="stroke-opacity: 0; stroke-width: 15;" points="809,36 980,36 "></polyline><rect class="djs-outline" fill="none" style="" height="12" width="183" y="30" x="803"></rect></g></g><g class="djs-group"><g style="display: none;" transform="matrix(1,0,0,1,849.5,26)" data-element-id="SequenceFlow_1qcpasj_label" class="djs-element djs-shape"><g class="djs-visual"><text class=" djs-label" style="font-family: Arial,sans-serif; font-size: 11px;"><tspan y="0" x="45"></tspan></text></g><rect class="djs-hit" stroke="#ffffff" fill="none" style="stroke-opacity: 0; stroke-width: 15;" height="20" width="90" y="0" x="0"></rect><rect class="djs-outline" fill="none" style="" height="32" width="102" y="-6" x="-6"></rect></g></g><g class="djs-group"><g style="display: block;" data-element-id="SequenceFlow_01u0ga0" class="djs-element djs-connection"><g class="djs-visual"><path stroke="#000000" fill="none" style="stroke-width: 2; stroke-linejoin: round; marker-end: url(&quot;#markerSii18646m9&quot;);" d="m  872,120L872,79 L998,79 L998,54 "></path></g><polyline class="djs-hit" stroke="#ffffff" fill="none" style="stroke-opacity: 0; stroke-width: 15;" points="872,120 872,79 998,79 998,54 "></polyline><rect class="djs-outline" fill="none" style="" height="78" width="138" y="48" x="866"></rect></g></g><g class="djs-group"><g style="display: block;" transform="matrix(1,0,0,1,827,68)" data-element-id="SequenceFlow_01u0ga0_label" class="djs-element djs-shape"><g class="djs-visual"><text class=" djs-label" style="font-family: Arial,sans-serif; font-size: 11px;"><tspan y="13" x="39">no</tspan></text></g><rect class="djs-hit" stroke="#ffffff" fill="none" style="stroke-opacity: 0; stroke-width: 15;" height="20" width="90" y="0" x="0"></rect><rect class="djs-outline" fill="none" style="" height="32" width="102" y="-6" x="-6"></rect></g></g><g class="djs-group"><g style="display: block;" transform="matrix(1,0,0,1,607,13)" data-element-id="SequenceFlow_0e5akrj_label" class="djs-element djs-shape"><g class="djs-visual"><text class=" djs-label" style="font-family: Arial,sans-serif; font-size: 11px;"><tspan y="13" x="41">si</tspan></text></g><rect class="djs-hit" stroke="#ffffff" fill="none" style="stroke-opacity: 0; stroke-width: 15;" height="20" width="90" y="0" x="0"></rect><rect class="djs-outline" fill="none" style="" height="32" width="102" y="-6" x="-6"></rect></g></g></g></g></svg>